<?xml version="1.0" encoding="us-ascii" standalone="no"?><svg xmlns="http://www.w3.org/2000/svg" xmlns:xlink="http://www.w3.org/1999/xlink" contentStyleType="text/css" height="736px" preserveAspectRatio="none" style="width:758px;height:736px;background:#FFFFFF;" version="1.1" viewBox="0 0 758 736" width="758px" zoomAndPan="magnify"><defs/><g><text fill="#000000" font-family="sans-serif" font-size="14" font-weight="bold" lengthAdjust="spacing" textLength="301" x="224.75" y="27.9951">Brokerless pubsub sequence diagram</text><rect fill="#FFFFFF" height="535.2578" style="stroke:#181818;stroke-width:1.0;" width="10" x="40" y="147.8594"/><rect fill="#FFFFFF" height="71.2656" style="stroke:#181818;stroke-width:1.0;" width="10" x="314" y="176.9922"/><rect fill="#FFFFFF" height="29.1328" style="stroke:#181818;stroke-width:1.0;" width="10" x="314" y="364.7891"/><rect fill="#FFFFFF" height="71.2656" style="stroke:#181818;stroke-width:1.0;" width="10" x="314" y="582.7188"/><rect fill="#FFFFFF" height="608.5234" style="stroke:#181818;stroke-width:1.0;" width="10" x="472" y="83.5938"/><rect fill="#FFFFFF" height="440.8594" style="stroke:#181818;stroke-width:1.0;" width="10" x="562.5" y="83.5938"/><line style="stroke:#181818;stroke-width:0.5;stroke-dasharray:5.0,5.0;" x1="45" x2="45" y1="73.5938" y2="701.1172"/><line style="stroke:#181818;stroke-width:0.5;stroke-dasharray:5.0,5.0;" x1="319" x2="319" y1="73.5938" y2="701.1172"/><line style="stroke:#181818;stroke-width:0.5;stroke-dasharray:5.0,5.0;" x1="477" x2="477" y1="73.5938" y2="701.1172"/><line style="stroke:#181818;stroke-width:0.5;stroke-dasharray:5.0,5.0;" x1="567" x2="567" y1="73.5938" y2="701.1172"/><rect fill="#E2E2F0" height="30.2969" rx="2.5" ry="2.5" style="stroke:#181818;stroke-width:0.5;" width="80" x="5" y="42.2969"/><text fill="#000000" font-family="sans-serif" font-size="14" lengthAdjust="spacing" textLength="66" x="12" y="62.292">Publisher</text><rect fill="#E2E2F0" height="30.2969" rx="2.5" ry="2.5" style="stroke:#181818;stroke-width:0.5;" width="80" x="5" y="700.1172"/><text fill="#000000" font-family="sans-serif" font-size="14" lengthAdjust="spacing" textLength="66" x="12" y="720.1123">Publisher</text><rect fill="#E2E2F0" height="30.2969" rx="2.5" ry="2.5" style="stroke:#181818;stroke-width:0.5;" width="92" x="273" y="42.2969"/><text fill="#000000" font-family="sans-serif" font-size="14" lengthAdjust="spacing" textLength="78" x="280" y="62.292">PS_Service</text><rect fill="#E2E2F0" height="30.2969" rx="2.5" ry="2.5" style="stroke:#181818;stroke-width:0.5;" width="92" x="273" y="700.1172"/><text fill="#000000" font-family="sans-serif" font-size="14" lengthAdjust="spacing" textLength="78" x="280" y="720.1123">PS_Service</text><rect fill="#E2E2F0" height="30.2969" rx="2.5" ry="2.5" style="stroke:#181818;stroke-width:0.5;" width="70" x="442" y="42.2969"/><text fill="#000000" font-family="sans-serif" font-size="14" lengthAdjust="spacing" textLength="56" x="449" y="62.292">Monitor</text><rect fill="#E2E2F0" height="30.2969" rx="2.5" ry="2.5" style="stroke:#181818;stroke-width:0.5;" width="70" x="442" y="700.1172"/><text fill="#000000" font-family="sans-serif" font-size="14" lengthAdjust="spacing" textLength="56" x="449" y="720.1123">Monitor</text><rect fill="#E2E2F0" height="30.2969" rx="2.5" ry="2.5" style="stroke:#181818;stroke-width:0.5;" width="91" x="522" y="42.2969"/><text fill="#000000" font-family="sans-serif" font-size="14" lengthAdjust="spacing" textLength="77" x="529" y="62.292">Subscriber</text><rect fill="#E2E2F0" height="30.2969" rx="2.5" ry="2.5" style="stroke:#181818;stroke-width:0.5;" width="91" x="522" y="700.1172"/><text fill="#000000" font-family="sans-serif" font-size="14" lengthAdjust="spacing" textLength="77" x="529" y="720.1123">Subscriber</text><rect fill="#FFFFFF" height="535.2578" style="stroke:#181818;stroke-width:1.0;" width="10" x="40" y="147.8594"/><rect fill="#FFFFFF" height="71.2656" style="stroke:#181818;stroke-width:1.0;" width="10" x="314" y="176.9922"/><rect fill="#FFFFFF" height="29.1328" style="stroke:#181818;stroke-width:1.0;" width="10" x="314" y="364.7891"/><rect fill="#FFFFFF" height="71.2656" style="stroke:#181818;stroke-width:1.0;" width="10" x="314" y="582.7188"/><rect fill="#FFFFFF" height="608.5234" style="stroke:#181818;stroke-width:1.0;" width="10" x="472" y="83.5938"/><rect fill="#FFFFFF" height="440.8594" style="stroke:#181818;stroke-width:1.0;" width="10" x="562.5" y="83.5938"/><rect fill="#EEEEEE" height="3" style="stroke:#EEEEEE;stroke-width:1.0;" width="751.5" x="0" y="104.1602"/><line style="stroke:#000000;stroke-width:1.0;" x1="0" x2="751.5" y1="104.1602" y2="104.1602"/><line style="stroke:#000000;stroke-width:1.0;" x1="0" x2="751.5" y1="107.1602" y2="107.1602"/><rect fill="#EEEEEE" height="23.1328" style="stroke:#000000;stroke-width:2.0;" width="86" x="332.75" y="93.5938"/><text fill="#000000" font-family="sans-serif" font-size="13" font-weight="bold" lengthAdjust="spacing" textLength="72" x="338.75" y="109.6606">Subscribe</text><polygon fill="#181818" points="61,143.8594,51,147.8594,61,151.8594,57,147.8594" style="stroke:#181818;stroke-width:1.0;"/><line style="stroke:#181818;stroke-width:1.0;" x1="55" x2="561.5" y1="147.8594" y2="147.8594"/><text fill="#000000" font-family="sans-serif" font-size="13" lengthAdjust="spacing" textLength="181" x="67" y="142.7935">GetSubscriptionInfo(subject)</text><polygon fill="#181818" points="302,172.9922,312,176.9922,302,180.9922,306,176.9922" style="stroke:#181818;stroke-width:1.0;"/><line style="stroke:#181818;stroke-width:1.0;" x1="50" x2="308" y1="176.9922" y2="176.9922"/><text fill="#000000" font-family="sans-serif" font-size="13" lengthAdjust="spacing" textLength="245" x="57" y="171.9263">CreateTopic(subject, managementCB)</text><line style="stroke:#181818;stroke-width:1.0;" x1="324" x2="366" y1="206.125" y2="206.125"/><line style="stroke:#181818;stroke-width:1.0;" x1="366" x2="366" y1="206.125" y2="219.125"/><line style="stroke:#181818;stroke-width:1.0;" x1="325" x2="366" y1="219.125" y2="219.125"/><polygon fill="#181818" points="335,215.125,325,219.125,335,223.125,331,219.125" style="stroke:#181818;stroke-width:1.0;"/><text fill="#000000" font-family="sans-serif" font-size="13" lengthAdjust="spacing" textLength="134" x="331" y="201.0591">generate topic name</text><polygon fill="#181818" points="61,244.2578,51,248.2578,61,252.2578,57,248.2578" style="stroke:#181818;stroke-width:1.0;"/><line style="stroke:#181818;stroke-width:1.0;stroke-dasharray:2.0,2.0;" x1="55" x2="318" y1="248.2578" y2="248.2578"/><text fill="#000000" font-family="sans-serif" font-size="13" lengthAdjust="spacing" textLength="240" x="67" y="243.1919">Return topic + subscription metadata</text><ellipse cx="743" cy="276.6406" fill="none" rx="4" ry="4" style="stroke:#181818;stroke-width:1.5;"/><polygon fill="#181818" points="726,273.3906,736,277.3906,726,281.3906,730,277.3906" style="stroke:#181818;stroke-width:1.0;"/><line style="stroke:#181818;stroke-width:1.0;" x1="50" x2="732" y1="277.3906" y2="277.3906"/><text fill="#000000" font-family="sans-serif" font-size="13" lengthAdjust="spacing" textLength="154" x="57" y="272.3247">Initialize publish process</text><polygon fill="#181818" points="550.5,302.5234,560.5,306.5234,550.5,310.5234,554.5,306.5234" style="stroke:#181818;stroke-width:1.0;"/><line style="stroke:#181818;stroke-width:1.0;stroke-dasharray:2.0,2.0;" x1="50" x2="556.5" y1="306.5234" y2="306.5234"/><text fill="#000000" font-family="sans-serif" font-size="13" lengthAdjust="spacing" textLength="240" x="57" y="301.4575">Return topic + subscription metadata</text><polygon fill="#181818" points="61,331.6563,51,335.6563,61,339.6563,57,335.6563" style="stroke:#181818;stroke-width:1.0;"/><line style="stroke:#181818;stroke-width:1.0;" x1="55" x2="561.5" y1="335.6563" y2="335.6563"/><text fill="#000000" font-family="sans-serif" font-size="13" lengthAdjust="spacing" textLength="103" x="67" y="330.5903">Subscribe(topic)</text><polygon fill="#181818" points="335,360.7891,325,364.7891,335,368.7891,331,364.7891" style="stroke:#181818;stroke-width:1.0;"/><line style="stroke:#181818;stroke-width:1.0;" x1="329" x2="471" y1="364.7891" y2="364.7891"/><text fill="#000000" font-family="sans-serif" font-size="13" lengthAdjust="spacing" textLength="115" x="341" y="359.7231">SubscriptionEvent</text><polygon fill="#181818" points="61,389.9219,51,393.9219,61,397.9219,57,393.9219" style="stroke:#181818;stroke-width:1.0;"/><line style="stroke:#181818;stroke-width:1.0;" x1="55" x2="318" y1="393.9219" y2="393.9219"/><text fill="#000000" font-family="sans-serif" font-size="13" lengthAdjust="spacing" textLength="183" x="67" y="388.856">managementCB(topic, start)</text><ellipse cx="743" cy="422.3047" fill="none" rx="4" ry="4" style="stroke:#181818;stroke-width:1.5;"/><polygon fill="#181818" points="726,419.0547,736,423.0547,726,427.0547,730,423.0547" style="stroke:#181818;stroke-width:1.0;"/><line style="stroke:#181818;stroke-width:1.0;" x1="50" x2="732" y1="423.0547" y2="423.0547"/><text fill="#000000" font-family="sans-serif" font-size="13" lengthAdjust="spacing" textLength="84" x="57" y="417.9888">Publish(data)</text><ellipse cx="7.5" cy="451.4375" fill="none" rx="4" ry="4" style="stroke:#181818;stroke-width:1.5;"/><polygon fill="#181818" points="550.5,448.1875,560.5,452.1875,550.5,456.1875,554.5,452.1875" style="stroke:#181818;stroke-width:1.0;"/><line style="stroke:#181818;stroke-width:1.0;stroke-dasharray:2.0,2.0;" x1="12" x2="556.5" y1="452.1875" y2="452.1875"/><text fill="#000000" font-family="sans-serif" font-size="13" lengthAdjust="spacing" textLength="29" x="15" y="447.1216">data</text><rect fill="#EEEEEE" height="3" style="stroke:#EEEEEE;stroke-width:1.0;" width="751.5" x="0" y="480.7539"/><line style="stroke:#000000;stroke-width:1.0;" x1="0" x2="751.5" y1="480.7539" y2="480.7539"/><line style="stroke:#000000;stroke-width:1.0;" x1="0" x2="751.5" y1="483.7539" y2="483.7539"/><rect fill="#EEEEEE" height="23.1328" style="stroke:#000000;stroke-width:2.0;" width="104" x="323.75" y="470.1875"/><text fill="#000000" font-family="sans-serif" font-size="13" font-weight="bold" lengthAdjust="spacing" textLength="90" x="329.75" y="486.2544">Unsubscribe</text><line style="stroke:#181818;stroke-width:2.0;" x1="733.5" x2="743.5" y1="519.4531" y2="529.4531"/><line style="stroke:#181818;stroke-width:2.0;" x1="733.5" x2="743.5" y1="529.4531" y2="519.4531"/><line style="stroke:#181818;stroke-width:1.0;" x1="567.5" x2="738.5" y1="524.4531" y2="524.4531"/><text fill="#000000" font-family="sans-serif" font-size="13" lengthAdjust="spacing" textLength="160" x="574.5" y="519.3872">Unsubscribe('Unregister')</text><line style="stroke:#A80036;stroke-width:2.0;" x1="558.5" x2="576.5" y1="515.4531" y2="533.4531"/><line style="stroke:#A80036;stroke-width:2.0;" x1="558.5" x2="576.5" y1="533.4531" y2="515.4531"/><ellipse cx="7.5" cy="552.8359" fill="none" rx="4" ry="4" style="stroke:#181818;stroke-width:1.5;"/><line style="stroke:#181818;stroke-width:2.0;" x1="549.5" x2="559.5" y1="548.5859" y2="558.5859"/><line style="stroke:#181818;stroke-width:2.0;" x1="549.5" x2="559.5" y1="558.5859" y2="548.5859"/><line style="stroke:#181818;stroke-width:1.0;stroke-dasharray:2.0,2.0;" x1="12" x2="554.5" y1="553.5859" y2="553.5859"/><text fill="#000000" font-family="sans-serif" font-size="13" lengthAdjust="spacing" textLength="29" x="15" y="548.52">data</text><polygon fill="#181818" points="335,578.7188,325,582.7188,335,586.7188,331,582.7188" style="stroke:#181818;stroke-width:1.0;"/><line style="stroke:#181818;stroke-width:1.0;" x1="329" x2="471" y1="582.7188" y2="582.7188"/><text fill="#000000" font-family="sans-serif" font-size="13" lengthAdjust="spacing" textLength="115" x="341" y="577.6528">UnsubscribeEvent</text><line style="stroke:#181818;stroke-width:1.0;" x1="324" x2="366" y1="611.8516" y2="611.8516"/><line style="stroke:#181818;stroke-width:1.0;" x1="366" x2="366" y1="611.8516" y2="624.8516"/><line style="stroke:#181818;stroke-width:1.0;" x1="325" x2="366" y1="624.8516" y2="624.8516"/><polygon fill="#181818" points="335,620.8516,325,624.8516,335,628.8516,331,624.8516" style="stroke:#181818;stroke-width:1.0;"/><text fill="#000000" font-family="sans-serif" font-size="13" lengthAdjust="spacing" textLength="96" x="331" y="606.7856">If TopicSub = 0</text><polygon fill="#181818" points="61,649.9844,51,653.9844,61,657.9844,57,653.9844" style="stroke:#181818;stroke-width:1.0;"/><line style="stroke:#181818;stroke-width:1.0;" x1="55" x2="318" y1="653.9844" y2="653.9844"/><text fill="#000000" font-family="sans-serif" font-size="13" lengthAdjust="spacing" textLength="181" x="67" y="648.9185">managementCB(topic, stop)</text><line style="stroke:#181818;stroke-width:2.0;" x1="733.5" x2="743.5" y1="678.1172" y2="688.1172"/><line style="stroke:#181818;stroke-width:2.0;" x1="733.5" x2="743.5" y1="688.1172" y2="678.1172"/><line style="stroke:#181818;stroke-width:1.0;" x1="45" x2="738.5" y1="683.1172" y2="683.1172"/><text fill="#000000" font-family="sans-serif" font-size="13" lengthAdjust="spacing" textLength="84" x="52" y="678.0513">Publish(data)</text><!--SRC=[bP9FJyCm3CNl-HI-hHD3uenKa3OXj0CIOko444ephmJQ93ZkDFZqf5ktflk3oZL-UNx-sQovG1YJ_KGgq7jmLUQh33n-LMWKmaBBd6GfqdGMAefqXcagd2JMIZjf61whhD3-7QdxEdkR8QsqmixpWpMQBGaX5UkLP8IzRVouaxL5kBnfEy4rt2CtHSVQcgbPsYG4_q35mzQdpIRQpxNJFbsmcX06xRDrMkqiHb1A8tCiqV1a71ksOud8vD0oHuDKwxbs1IFB0_t1D4_85Pb6VG4-cWnAPBcGBCK2JyU81hElmMmQs6bPw1-ijrdNm95LORiTSOWGuUsPuO-Dx2l9nc8eHBF58phnukvM0N4llb6hU3dRRYFm7Cvis1jIyv3KKuMeB_Q8ntRUD9qR7rr-5y3wDWWZGJAO6y9SUqOQr64ya_tktFYcq_fKgtEu8l_-j6A3wH8srnrwGWfN_oThNI-mwsEmyQ-TyXS0]--></g></svg>