<?xml version="1.0" encoding="us-ascii" standalone="no"?><svg xmlns="http://www.w3.org/2000/svg" xmlns:xlink="http://www.w3.org/1999/xlink" contentStyleType="text/css" height="404px" preserveAspectRatio="none" style="width:822px;height:404px;background:#FFFFFF;" version="1.1" viewBox="0 0 822 404" width="822px" zoomAndPan="magnify"><defs/><g><text fill="#000000" font-family="sans-serif" font-size="14" font-weight="bold" lengthAdjust="spacing" textLength="255" x="282.75" y="27.9951">Delete Topic Sequence Diagram</text><rect fill="#FFFFFF" height="238.0625" style="stroke:#181818;stroke-width:1.0;" width="10" x="40" y="83.5938"/><rect fill="#FFFFFF" height="100.3984" style="stroke:#181818;stroke-width:1.0;" width="10" x="199" y="192.125"/><rect fill="#FFFFFF" height="34.1328" style="stroke:#181818;stroke-width:1.0;" width="10" x="204" y="229.2578"/><rect fill="#FFFFFF" height="276.1953" style="stroke:#181818;stroke-width:1.0;" width="10" x="528" y="83.5938"/><rect fill="#FFFFFF" height="267.1953" style="stroke:#181818;stroke-width:1.0;" width="10" x="766" y="83.5938"/><line style="stroke:#181818;stroke-width:0.5;stroke-dasharray:5.0,5.0;" x1="45" x2="45" y1="73.5938" y2="368.7891"/><line style="stroke:#181818;stroke-width:0.5;stroke-dasharray:5.0,5.0;" x1="204" x2="204" y1="73.5938" y2="368.7891"/><line style="stroke:#181818;stroke-width:0.5;stroke-dasharray:5.0,5.0;" x1="532.5" x2="532.5" y1="73.5938" y2="368.7891"/><line style="stroke:#181818;stroke-width:0.5;stroke-dasharray:5.0,5.0;" x1="770.5" x2="770.5" y1="73.5938" y2="368.7891"/><rect fill="#E2E2F0" height="30.2969" rx="2.5" ry="2.5" style="stroke:#181818;stroke-width:0.5;" width="80" x="5" y="42.2969"/><text fill="#000000" font-family="sans-serif" font-size="14" lengthAdjust="spacing" textLength="66" x="12" y="62.292">Publisher</text><rect fill="#E2E2F0" height="30.2969" rx="2.5" ry="2.5" style="stroke:#181818;stroke-width:0.5;" width="80" x="5" y="367.7891"/><text fill="#000000" font-family="sans-serif" font-size="14" lengthAdjust="spacing" textLength="66" x="12" y="387.7842">Publisher</text><rect fill="#E2E2F0" height="30.2969" rx="2.5" ry="2.5" style="stroke:#181818;stroke-width:0.5;" width="92" x="158" y="42.2969"/><text fill="#000000" font-family="sans-serif" font-size="14" lengthAdjust="spacing" textLength="78" x="165" y="62.292">PS_Service</text><rect fill="#E2E2F0" height="30.2969" rx="2.5" ry="2.5" style="stroke:#181818;stroke-width:0.5;" width="92" x="158" y="367.7891"/><text fill="#000000" font-family="sans-serif" font-size="14" lengthAdjust="spacing" textLength="78" x="165" y="387.7842">PS_Service</text><rect fill="#E2E2F0" height="30.2969" rx="2.5" ry="2.5" style="stroke:#181818;stroke-width:0.5;" width="63" x="501.5" y="42.2969"/><text fill="#000000" font-family="sans-serif" font-size="14" lengthAdjust="spacing" textLength="49" x="508.5" y="62.292">Broker</text><rect fill="#E2E2F0" height="30.2969" rx="2.5" ry="2.5" style="stroke:#181818;stroke-width:0.5;" width="63" x="501.5" y="367.7891"/><text fill="#000000" font-family="sans-serif" font-size="14" lengthAdjust="spacing" textLength="49" x="508.5" y="387.7842">Broker</text><rect fill="#E2E2F0" height="30.2969" rx="2.5" ry="2.5" style="stroke:#181818;stroke-width:0.5;" width="91" x="725.5" y="42.2969"/><text fill="#000000" font-family="sans-serif" font-size="14" lengthAdjust="spacing" textLength="77" x="732.5" y="62.292">Subscriber</text><rect fill="#E2E2F0" height="30.2969" rx="2.5" ry="2.5" style="stroke:#181818;stroke-width:0.5;" width="91" x="725.5" y="367.7891"/><text fill="#000000" font-family="sans-serif" font-size="14" lengthAdjust="spacing" textLength="77" x="732.5" y="387.7842">Subscriber</text><rect fill="#FFFFFF" height="238.0625" style="stroke:#181818;stroke-width:1.0;" width="10" x="40" y="83.5938"/><rect fill="#FFFFFF" height="100.3984" style="stroke:#181818;stroke-width:1.0;" width="10" x="199" y="192.125"/><rect fill="#FFFFFF" height="34.1328" style="stroke:#181818;stroke-width:1.0;" width="10" x="204" y="229.2578"/><rect fill="#FFFFFF" height="276.1953" style="stroke:#181818;stroke-width:1.0;" width="10" x="528" y="83.5938"/><rect fill="#FFFFFF" height="267.1953" style="stroke:#181818;stroke-width:1.0;" width="10" x="766" y="83.5938"/><polygon fill="#181818" points="516,100.7266,526,104.7266,516,108.7266,520,104.7266" style="stroke:#181818;stroke-width:1.0;"/><line style="stroke:#181818;stroke-width:1.0;" x1="50" x2="522" y1="104.7266" y2="104.7266"/><text fill="#000000" font-family="sans-serif" font-size="13" font-weight="bold" lengthAdjust="spacing" textLength="9" x="57" y="99.6606">1</text><text fill="#000000" font-family="sans-serif" font-size="13" lengthAdjust="spacing" textLength="29" x="70" y="99.6606">data</text><polygon fill="#181818" points="754,129.8594,764,133.8594,754,137.8594,758,133.8594" style="stroke:#181818;stroke-width:1.0;"/><line style="stroke:#181818;stroke-width:1.0;" x1="538" x2="760" y1="133.8594" y2="133.8594"/><text fill="#000000" font-family="sans-serif" font-size="13" font-weight="bold" lengthAdjust="spacing" textLength="9" x="545" y="128.7935">2</text><text fill="#000000" font-family="sans-serif" font-size="13" lengthAdjust="spacing" textLength="29" x="558" y="128.7935">data</text><line style="stroke:#181818;stroke-width:2.0;" x1="510" x2="520" y1="157.9922" y2="167.9922"/><line style="stroke:#181818;stroke-width:2.0;" x1="510" x2="520" y1="167.9922" y2="157.9922"/><line style="stroke:#181818;stroke-width:1.0;" x1="50" x2="515" y1="162.9922" y2="162.9922"/><text fill="#000000" font-family="sans-serif" font-size="13" font-weight="bold" lengthAdjust="spacing" textLength="8" x="57" y="157.9263">3</text><text fill="#000000" font-family="sans-serif" font-size="13" lengthAdjust="spacing" textLength="29" x="69" y="157.9263">data</text><polygon fill="#181818" points="187,188.125,197,192.125,187,196.125,191,192.125" style="stroke:#181818;stroke-width:1.0;"/><line style="stroke:#181818;stroke-width:1.0;" x1="50" x2="193" y1="192.125" y2="192.125"/><text fill="#000000" font-family="sans-serif" font-size="13" font-weight="bold" lengthAdjust="spacing" textLength="9" x="57" y="187.0591">4</text><text fill="#000000" font-family="sans-serif" font-size="13" lengthAdjust="spacing" textLength="117" x="70" y="187.0591">DeleteTopic(topic)</text><line style="stroke:#181818;stroke-width:1.0;" x1="209" x2="256" y1="216.2578" y2="216.2578"/><line style="stroke:#181818;stroke-width:1.0;" x1="256" x2="256" y1="216.2578" y2="229.2578"/><line style="stroke:#181818;stroke-width:1.0;" x1="215" x2="256" y1="229.2578" y2="229.2578"/><polygon fill="#181818" points="225,225.2578,215,229.2578,225,233.2578,221,229.2578" style="stroke:#181818;stroke-width:1.0;"/><text fill="#000000" font-family="sans-serif" font-size="13" font-weight="bold" lengthAdjust="spacing" textLength="9" x="221" y="211.1919">5</text><text fill="#000000" font-family="sans-serif" font-size="13" lengthAdjust="spacing" textLength="108" x="234" y="211.1919">topic subs == 0?</text><polygon fill="#181818" points="516,259.3906,526,263.3906,516,267.3906,520,263.3906" style="stroke:#181818;stroke-width:1.0;"/><line style="stroke:#181818;stroke-width:1.0;" x1="209" x2="522" y1="263.3906" y2="263.3906"/><text fill="#000000" font-family="sans-serif" font-size="13" font-weight="bold" lengthAdjust="spacing" textLength="9" x="216" y="258.3247">6</text><text fill="#000000" font-family="sans-serif" font-size="13" lengthAdjust="spacing" textLength="277" x="229" y="258.3247">publish PubSubAction::DELETE(topic) if any</text><polygon fill="#181818" points="61,288.5234,51,292.5234,61,296.5234,57,292.5234" style="stroke:#181818;stroke-width:1.0;"/><line style="stroke:#181818;stroke-width:1.0;stroke-dasharray:2.0,2.0;" x1="55" x2="203" y1="292.5234" y2="292.5234"/><text fill="#000000" font-family="sans-serif" font-size="13" font-weight="bold" lengthAdjust="spacing" textLength="9" x="67" y="287.4575">7</text><text fill="#000000" font-family="sans-serif" font-size="13" lengthAdjust="spacing" textLength="22" x="80" y="287.4575">ack</text><polygon fill="#181818" points="754,317.6563,764,321.6563,754,325.6563,758,321.6563" style="stroke:#181818;stroke-width:1.0;"/><line style="stroke:#181818;stroke-width:1.0;" x1="538" x2="760" y1="321.6563" y2="321.6563"/><text fill="#000000" font-family="sans-serif" font-size="13" font-weight="bold" lengthAdjust="spacing" textLength="9" x="545" y="316.5903">8</text><text fill="#000000" font-family="sans-serif" font-size="13" lengthAdjust="spacing" textLength="156" x="558" y="316.5903">TOPIC DELETED on topic</text><line style="stroke:#A80036;stroke-width:2.0;" x1="36" x2="54" y1="312.6563" y2="330.6563"/><line style="stroke:#A80036;stroke-width:2.0;" x1="36" x2="54" y1="330.6563" y2="312.6563"/><line style="stroke:#181818;stroke-width:2.0;" x1="545" x2="555" y1="345.7891" y2="355.7891"/><line style="stroke:#181818;stroke-width:2.0;" x1="545" x2="555" y1="355.7891" y2="345.7891"/><line style="stroke:#181818;stroke-width:1.0;stroke-dasharray:2.0,2.0;" x1="550" x2="770" y1="350.7891" y2="350.7891"/><text fill="#000000" font-family="sans-serif" font-size="13" font-weight="bold" lengthAdjust="spacing" textLength="9" x="555" y="345.7231">9</text><text fill="#000000" font-family="sans-serif" font-size="13" lengthAdjust="spacing" textLength="191" x="568" y="345.7231">disconnect/unsubscribe(topic)</text><!--SRC=[ZP5FJyCm3CNl_HG-mc62SwM1WFOm2ObAxHsvcG5hNL8IPsBVddJzaspI19T8iVrxUSyHbewWe8w4e34zAwZfsvDMeShuQN6VeHUZ_Rubcw4IFc0OhNpRiViAfHwjiE8UjK1LlzTa3wmeJZvRiql9shTEMHxKiaK5LW_J8EImHS5ikeLw1EPUYlrSS6UIqKzeZo5F6MzaE6-JED5umbmgd2XmmG-irt3_-0z-CTUFleR5XK1F0JGwpulojMpAoGxm1w0-PblwItSmjkJC0TNk2dHbYyrRjNc1yV42Z1wJ1GqdrXoJpqserVcksIcZDIcvyzhDK_DU4pDHuHS0]--></g></svg>