<?xml version="1.0" encoding="us-ascii" standalone="no"?><svg xmlns="http://www.w3.org/2000/svg" xmlns:xlink="http://www.w3.org/1999/xlink" contentStyleType="text/css" height="419px" preserveAspectRatio="none" style="width:769px;height:419px;background:#FFFFFF;" version="1.1" viewBox="0 0 769 419" width="769px" zoomAndPan="magnify"><defs/><g><text fill="#000000" font-family="sans-serif" font-size="14" font-weight="bold" lengthAdjust="spacing" textLength="324" x="224.25" y="27.9951">Publisher Disconnect Sequence Diagram</text><rect fill="#FFFFFF" height="50.2656" style="stroke:#181818;stroke-width:1.0;" width="10" x="40" y="83.5938"/><rect fill="#FFFFFF" height="210.7969" style="stroke:#181818;stroke-width:1.0;" width="10" x="136" y="162.9922"/><rect fill="#FFFFFF" height="158.6641" style="stroke:#181818;stroke-width:1.0;" width="10" x="141" y="200.125"/><rect fill="#FFFFFF" height="291.1953" style="stroke:#181818;stroke-width:1.0;" width="10" x="465" y="83.5938"/><rect fill="#FFFFFF" height="290.1953" style="stroke:#181818;stroke-width:1.0;" width="10" x="703" y="83.5938"/><rect fill="none" height="146.6641" style="stroke:#000000;stroke-width:1.5;" width="678.5" x="85" y="220.125"/><line style="stroke:#181818;stroke-width:0.5;stroke-dasharray:5.0,5.0;" x1="45" x2="45" y1="73.5938" y2="383.7891"/><line style="stroke:#181818;stroke-width:0.5;stroke-dasharray:5.0,5.0;" x1="141" x2="141" y1="73.5938" y2="383.7891"/><line style="stroke:#181818;stroke-width:0.5;stroke-dasharray:5.0,5.0;" x1="469.5" x2="469.5" y1="73.5938" y2="383.7891"/><line style="stroke:#181818;stroke-width:0.5;stroke-dasharray:5.0,5.0;" x1="707.5" x2="707.5" y1="73.5938" y2="383.7891"/><rect fill="#E2E2F0" height="30.2969" rx="2.5" ry="2.5" style="stroke:#181818;stroke-width:0.5;" width="80" x="5" y="42.2969"/><text fill="#000000" font-family="sans-serif" font-size="14" lengthAdjust="spacing" textLength="66" x="12" y="62.292">Publisher</text><rect fill="#E2E2F0" height="30.2969" rx="2.5" ry="2.5" style="stroke:#181818;stroke-width:0.5;" width="80" x="5" y="382.7891"/><text fill="#000000" font-family="sans-serif" font-size="14" lengthAdjust="spacing" textLength="66" x="12" y="402.7842">Publisher</text><rect fill="#E2E2F0" height="30.2969" rx="2.5" ry="2.5" style="stroke:#181818;stroke-width:0.5;" width="92" x="95" y="42.2969"/><text fill="#000000" font-family="sans-serif" font-size="14" lengthAdjust="spacing" textLength="78" x="102" y="62.292">PS_Service</text><rect fill="#E2E2F0" height="30.2969" rx="2.5" ry="2.5" style="stroke:#181818;stroke-width:0.5;" width="92" x="95" y="382.7891"/><text fill="#000000" font-family="sans-serif" font-size="14" lengthAdjust="spacing" textLength="78" x="102" y="402.7842">PS_Service</text><rect fill="#E2E2F0" height="30.2969" rx="2.5" ry="2.5" style="stroke:#181818;stroke-width:0.5;" width="63" x="438.5" y="42.2969"/><text fill="#000000" font-family="sans-serif" font-size="14" lengthAdjust="spacing" textLength="49" x="445.5" y="62.292">Broker</text><rect fill="#E2E2F0" height="30.2969" rx="2.5" ry="2.5" style="stroke:#181818;stroke-width:0.5;" width="63" x="438.5" y="382.7891"/><text fill="#000000" font-family="sans-serif" font-size="14" lengthAdjust="spacing" textLength="49" x="445.5" y="402.7842">Broker</text><rect fill="#E2E2F0" height="30.2969" rx="2.5" ry="2.5" style="stroke:#181818;stroke-width:0.5;" width="91" x="662.5" y="42.2969"/><text fill="#000000" font-family="sans-serif" font-size="14" lengthAdjust="spacing" textLength="77" x="669.5" y="62.292">Subscriber</text><rect fill="#E2E2F0" height="30.2969" rx="2.5" ry="2.5" style="stroke:#181818;stroke-width:0.5;" width="91" x="662.5" y="382.7891"/><text fill="#000000" font-family="sans-serif" font-size="14" lengthAdjust="spacing" textLength="77" x="669.5" y="402.7842">Subscriber</text><rect fill="#FFFFFF" height="50.2656" style="stroke:#181818;stroke-width:1.0;" width="10" x="40" y="83.5938"/><rect fill="#FFFFFF" height="210.7969" style="stroke:#181818;stroke-width:1.0;" width="10" x="136" y="162.9922"/><rect fill="#FFFFFF" height="158.6641" style="stroke:#181818;stroke-width:1.0;" width="10" x="141" y="200.125"/><rect fill="#FFFFFF" height="291.1953" style="stroke:#181818;stroke-width:1.0;" width="10" x="465" y="83.5938"/><rect fill="#FFFFFF" height="290.1953" style="stroke:#181818;stroke-width:1.0;" width="10" x="703" y="83.5938"/><polygon fill="#181818" points="453,100.7266,463,104.7266,453,108.7266,457,104.7266" style="stroke:#181818;stroke-width:1.0;"/><line style="stroke:#181818;stroke-width:1.0;" x1="50" x2="459" y1="104.7266" y2="104.7266"/><text fill="#000000" font-family="sans-serif" font-size="13" font-weight="bold" lengthAdjust="spacing" textLength="9" x="57" y="99.6606">1</text><text fill="#000000" font-family="sans-serif" font-size="13" lengthAdjust="spacing" textLength="29" x="70" y="99.6606">data</text><polygon fill="#181818" points="691,129.8594,701,133.8594,691,137.8594,695,133.8594" style="stroke:#181818;stroke-width:1.0;"/><line style="stroke:#181818;stroke-width:1.0;" x1="475" x2="697" y1="133.8594" y2="133.8594"/><text fill="#000000" font-family="sans-serif" font-size="13" font-weight="bold" lengthAdjust="spacing" textLength="9" x="482" y="128.7935">2</text><text fill="#000000" font-family="sans-serif" font-size="13" lengthAdjust="spacing" textLength="29" x="495" y="128.7935">data</text><line style="stroke:#A80036;stroke-width:2.0;" x1="36" x2="54" y1="124.8594" y2="142.8594"/><line style="stroke:#A80036;stroke-width:2.0;" x1="36" x2="54" y1="142.8594" y2="124.8594"/><polygon fill="#181818" points="157,158.9922,147,162.9922,157,166.9922,153,162.9922" style="stroke:#181818;stroke-width:1.0;"/><line style="stroke:#181818;stroke-width:1.0;stroke-dasharray:2.0,2.0;" x1="151" x2="464" y1="162.9922" y2="162.9922"/><text fill="#000000" font-family="sans-serif" font-size="13" font-weight="bold" lengthAdjust="spacing" textLength="8" x="163" y="157.9263">3</text><text fill="#000000" font-family="sans-serif" font-size="13" lengthAdjust="spacing" textLength="235" x="175" y="157.9263">LWT on 'publisher/disconnect' with id</text><line style="stroke:#181818;stroke-width:1.0;" x1="146" x2="193" y1="187.125" y2="187.125"/><line style="stroke:#181818;stroke-width:1.0;" x1="193" x2="193" y1="187.125" y2="200.125"/><line style="stroke:#181818;stroke-width:1.0;" x1="152" x2="193" y1="200.125" y2="200.125"/><polygon fill="#181818" points="162,196.125,152,200.125,162,204.125,158,200.125" style="stroke:#181818;stroke-width:1.0;"/><text fill="#000000" font-family="sans-serif" font-size="13" font-weight="bold" lengthAdjust="spacing" textLength="9" x="158" y="182.0591">4</text><text fill="#000000" font-family="sans-serif" font-size="13" lengthAdjust="spacing" textLength="147" x="171" y="182.0591">Get topics by publisher</text><path d="M85,220.125 L163,220.125 L163,227.2578 L153,237.2578 L85,237.2578 L85,220.125 " fill="#EEEEEE" style="stroke:#000000;stroke-width:1.5;"/><rect fill="none" height="146.6641" style="stroke:#000000;stroke-width:1.5;" width="678.5" x="85" y="220.125"/><text fill="#000000" font-family="sans-serif" font-size="13" font-weight="bold" lengthAdjust="spacing" textLength="33" x="100" y="233.1919">loop</text><text fill="#000000" font-family="sans-serif" font-size="11" font-weight="bold" lengthAdjust="spacing" textLength="106" x="178" y="232.3354">[for each topic]</text><line style="stroke:#181818;stroke-width:1.0;" x1="151" x2="193" y1="258.3906" y2="258.3906"/><line style="stroke:#181818;stroke-width:1.0;" x1="193" x2="193" y1="258.3906" y2="271.3906"/><line style="stroke:#181818;stroke-width:1.0;" x1="152" x2="193" y1="271.3906" y2="271.3906"/><polygon fill="#181818" points="162,267.3906,152,271.3906,162,275.3906,158,271.3906" style="stroke:#181818;stroke-width:1.0;"/><text fill="#000000" font-family="sans-serif" font-size="13" font-weight="bold" lengthAdjust="spacing" textLength="9" x="158" y="253.3247">5</text><text fill="#000000" font-family="sans-serif" font-size="13" lengthAdjust="spacing" textLength="108" x="171" y="253.3247">topic subs == 0?</text><polygon fill="#181818" points="453,296.5234,463,300.5234,453,304.5234,457,300.5234" style="stroke:#181818;stroke-width:1.0;"/><line style="stroke:#181818;stroke-width:1.0;" x1="151" x2="459" y1="300.5234" y2="300.5234"/><text fill="#000000" font-family="sans-serif" font-size="13" font-weight="bold" lengthAdjust="spacing" textLength="9" x="158" y="295.4575">6</text><text fill="#000000" font-family="sans-serif" font-size="13" lengthAdjust="spacing" textLength="277" x="171" y="295.4575">publish PubSubAction::DELETE(topic) if any</text><polygon fill="#181818" points="691,325.6563,701,329.6563,691,333.6563,695,329.6563" style="stroke:#181818;stroke-width:1.0;"/><line style="stroke:#181818;stroke-width:1.0;" x1="475" x2="697" y1="329.6563" y2="329.6563"/><text fill="#000000" font-family="sans-serif" font-size="13" font-weight="bold" lengthAdjust="spacing" textLength="9" x="482" y="324.5903">7</text><text fill="#000000" font-family="sans-serif" font-size="13" lengthAdjust="spacing" textLength="156" x="495" y="324.5903">TOPIC DELETED on topic</text><line style="stroke:#181818;stroke-width:2.0;" x1="482" x2="492" y1="353.7891" y2="363.7891"/><line style="stroke:#181818;stroke-width:2.0;" x1="482" x2="492" y1="363.7891" y2="353.7891"/><line style="stroke:#181818;stroke-width:1.0;stroke-dasharray:2.0,2.0;" x1="487" x2="702" y1="358.7891" y2="358.7891"/><text fill="#000000" font-family="sans-serif" font-size="13" font-weight="bold" lengthAdjust="spacing" textLength="9" x="492" y="353.7231">8</text><text fill="#000000" font-family="sans-serif" font-size="13" lengthAdjust="spacing" textLength="191" x="505" y="353.7231">disconnect/unsubscribe(topic)</text><!--SRC=[VP5FIyGm4CNl-HHpMpt8UYwiehQ8i62X1O-IfhCss4rgCbdjjpVT_acGhhbbydjlPbv8KekGkwgLja43gRH2AuM2eC0lXqgWh_4Fmu-CEzBA7IiqZ0kI9qwHadNSa1IouueWBzuBD2SfC92FHd_6oi9LLXWvkB7G_-Pk0Y61cXDdqytNWs1-gz6IqNqqn4nxFCpWyVrR2Lh1ffl9RRqike5lIGt8Ejegp1_P_3LzHWBIdHGMgXuMwrMRLkiE3je0Sj6CAWR-_6D_Xi3whM6tWzlx5Nw9Qce-9E5ZUl03Q9KaQRRFokpgR7GDyW1SzPS2BL_pboSO5UcGrJXZnFXGVwBFMVBREcLdQkhbVsOj15JrXPUe6Zh-0W00]--></g></svg>