<?xml version="1.0" encoding="us-ascii" standalone="no"?><svg xmlns="http://www.w3.org/2000/svg" xmlns:xlink="http://www.w3.org/1999/xlink" contentStyleType="text/css" height="591px" preserveAspectRatio="none" style="width:806px;height:591px;background:#FFFFFF;" version="1.1" viewBox="0 0 806 591" width="806px" zoomAndPan="magnify"><defs/><g><!--cluster pub--><g id="cluster_pub"><rect fill="none" height="225" rx="2.5" ry="2.5" style="stroke:#181818;stroke-width:1.0;" width="253" x="14" y="272"/><rect fill="none" height="10" style="stroke:#181818;stroke-width:1.0;" width="15" x="247" y="277"/><rect fill="none" height="2" style="stroke:#181818;stroke-width:1.0;" width="4" x="245" y="279"/><rect fill="none" height="2" style="stroke:#181818;stroke-width:1.0;" width="4" x="245" y="283"/><text fill="#000000" font-family="sans-serif" font-size="14" font-weight="bold" lengthAdjust="spacing" textLength="121" x="80" y="297.9951">Publisher gRPC</text></g><!--cluster ps_service--><g id="cluster_ps_service"><rect fill="none" height="225" rx="2.5" ry="2.5" style="stroke:#181818;stroke-width:1.0;" width="255" x="429" y="272"/><rect fill="none" height="10" style="stroke:#181818;stroke-width:1.0;" width="15" x="664" y="277"/><rect fill="none" height="2" style="stroke:#181818;stroke-width:1.0;" width="4" x="662" y="279"/><rect fill="none" height="2" style="stroke:#181818;stroke-width:1.0;" width="4" x="662" y="283"/><text fill="#000000" font-family="sans-serif" font-size="14" font-weight="bold" lengthAdjust="spacing" textLength="169" x="472" y="297.9951">PubSub Service gRPC</text></g><!--cluster sub--><g id="cluster_sub"><rect fill="none" height="225" rx="2.5" ry="2.5" style="stroke:#181818;stroke-width:1.0;" width="253" x="547" y="7"/><rect fill="none" height="10" style="stroke:#181818;stroke-width:1.0;" width="15" x="780" y="12"/><rect fill="none" height="2" style="stroke:#181818;stroke-width:1.0;" width="4" x="778" y="14"/><rect fill="none" height="2" style="stroke:#181818;stroke-width:1.0;" width="4" x="778" y="18"/><text fill="#000000" font-family="sans-serif" font-size="14" font-weight="bold" lengthAdjust="spacing" textLength="132" x="607.5" y="32.9951">Subscriber gRPC</text></g><!--entity Publisher--><g id="elem_Publisher"><rect fill="#F1F1F1" height="46.2969" rx="2.5" ry="2.5" style="stroke:#181818;stroke-width:0.5;" width="106" x="38" y="315"/><rect fill="#F1F1F1" height="10" style="stroke:#181818;stroke-width:0.5;" width="15" x="124" y="320"/><rect fill="#F1F1F1" height="2" style="stroke:#181818;stroke-width:0.5;" width="4" x="122" y="322"/><rect fill="#F1F1F1" height="2" style="stroke:#181818;stroke-width:0.5;" width="4" x="122" y="326"/><text fill="#000000" font-family="sans-serif" font-size="14" lengthAdjust="spacing" textLength="66" x="53" y="347.9951">Publisher</text></g><!--entity pub.broker--><g id="elem_pub.broker"><ellipse cx="47" cy="450" fill="#F1F1F1" rx="8" ry="8" style="stroke:#181818;stroke-width:0.5;"/><text fill="#000000" font-family="sans-serif" font-size="14" lengthAdjust="spacing" textLength="82" x="6" y="479.9951">pub.broker</text></g><!--entity PubConnector--><g id="elem_PubConnector"><rect fill="#F1F1F1" height="46.2969" rx="2.5" ry="2.5" style="stroke:#181818;stroke-width:0.5;" width="143" x="91.5" y="427"/><rect fill="#F1F1F1" height="10" style="stroke:#181818;stroke-width:0.5;" width="15" x="214.5" y="432"/><rect fill="#F1F1F1" height="2" style="stroke:#181818;stroke-width:0.5;" width="4" x="212.5" y="434"/><rect fill="#F1F1F1" height="2" style="stroke:#181818;stroke-width:0.5;" width="4" x="212.5" y="438"/><text fill="#000000" font-family="sans-serif" font-size="14" lengthAdjust="spacing" textLength="103" x="106.5" y="459.9951">PubConnector</text></g><!--entity Topic Mgmt--><g id="elem_Topic Mgmt"><rect fill="#F1F1F1" height="46.2969" rx="2.5" ry="2.5" style="stroke:#181818;stroke-width:0.5;" width="126" x="472" y="315"/><rect fill="#F1F1F1" height="10" style="stroke:#181818;stroke-width:0.5;" width="15" x="578" y="320"/><rect fill="#F1F1F1" height="2" style="stroke:#181818;stroke-width:0.5;" width="4" x="576" y="322"/><rect fill="#F1F1F1" height="2" style="stroke:#181818;stroke-width:0.5;" width="4" x="576" y="326"/><text fill="#000000" font-family="sans-serif" font-size="14" lengthAdjust="spacing" textLength="86" x="487" y="347.9951">Topic Mgmt</text></g><!--entity broker.monitor--><g id="elem_broker.monitor"><ellipse cx="470" cy="450" fill="#F1F1F1" rx="8" ry="8" style="stroke:#181818;stroke-width:0.5;"/><text fill="#000000" font-family="sans-serif" font-size="14" lengthAdjust="spacing" textLength="112" x="414" y="479.9951">broker.monitor</text></g><!--entity BrokerMonitor--><g id="elem_BrokerMonitor"><rect fill="#F1F1F1" height="46.2969" rx="2.5" ry="2.5" style="stroke:#181818;stroke-width:0.5;" width="145" x="514.5" y="427"/><rect fill="#F1F1F1" height="10" style="stroke:#181818;stroke-width:0.5;" width="15" x="639.5" y="432"/><rect fill="#F1F1F1" height="2" style="stroke:#181818;stroke-width:0.5;" width="4" x="637.5" y="434"/><rect fill="#F1F1F1" height="2" style="stroke:#181818;stroke-width:0.5;" width="4" x="637.5" y="438"/><text fill="#000000" font-family="sans-serif" font-size="14" lengthAdjust="spacing" textLength="105" x="529.5" y="459.9951">BrokerMonitor</text></g><!--entity Subscriber--><g id="elem_Subscriber"><rect fill="#F1F1F1" height="46.2969" rx="2.5" ry="2.5" style="stroke:#181818;stroke-width:0.5;" width="117" x="590.5" y="50"/><rect fill="#F1F1F1" height="10" style="stroke:#181818;stroke-width:0.5;" width="15" x="687.5" y="55"/><rect fill="#F1F1F1" height="2" style="stroke:#181818;stroke-width:0.5;" width="4" x="685.5" y="57"/><rect fill="#F1F1F1" height="2" style="stroke:#181818;stroke-width:0.5;" width="4" x="685.5" y="61"/><text fill="#000000" font-family="sans-serif" font-size="14" lengthAdjust="spacing" textLength="77" x="605.5" y="82.9951">Subscriber</text></g><!--entity sub.broker--><g id="elem_sub.broker"><ellipse cx="588" cy="185" fill="#F1F1F1" rx="8" ry="8" style="stroke:#181818;stroke-width:0.5;"/><text fill="#000000" font-family="sans-serif" font-size="14" lengthAdjust="spacing" textLength="79" x="548.5" y="214.9951">sub.broker</text></g><!--entity SubConnector--><g id="elem_SubConnector"><rect fill="#F1F1F1" height="46.2969" rx="2.5" ry="2.5" style="stroke:#181818;stroke-width:0.5;" width="143" x="632.5" y="162"/><rect fill="#F1F1F1" height="10" style="stroke:#181818;stroke-width:0.5;" width="15" x="755.5" y="167"/><rect fill="#F1F1F1" height="2" style="stroke:#181818;stroke-width:0.5;" width="4" x="753.5" y="169"/><rect fill="#F1F1F1" height="2" style="stroke:#181818;stroke-width:0.5;" width="4" x="753.5" y="173"/><text fill="#000000" font-family="sans-serif" font-size="14" lengthAdjust="spacing" textLength="103" x="647.5" y="194.9951">SubConnector</text></g><!--entity publisher.proto--><g id="elem_publisher.proto"><ellipse cx="437" cy="185" fill="#F1F1F1" rx="8" ry="8" style="stroke:#181818;stroke-width:0.5;"/><text fill="#000000" font-family="sans-serif" font-size="14" lengthAdjust="spacing" textLength="113" x="380.5" y="214.9951">publisher.proto</text></g><!--entity pubsub.proto--><g id="elem_pubsub.proto"><ellipse cx="348" cy="450" fill="#F1F1F1" rx="8" ry="8" style="stroke:#181818;stroke-width:0.5;"/><text fill="#000000" font-family="sans-serif" font-size="14" lengthAdjust="spacing" textLength="99" x="298.5" y="479.9951">pubsub.proto</text></g><!--entity Broker--><g id="elem_Broker"><rect fill="#F1F1F1" height="46.2969" rx="2.5" ry="2.5" style="stroke:#181818;stroke-width:0.5;" width="89" x="542.5" y="539"/><rect fill="#F1F1F1" height="10" style="stroke:#181818;stroke-width:0.5;" width="15" x="611.5" y="544"/><rect fill="#F1F1F1" height="2" style="stroke:#181818;stroke-width:0.5;" width="4" x="609.5" y="546"/><rect fill="#F1F1F1" height="2" style="stroke:#181818;stroke-width:0.5;" width="4" x="609.5" y="550"/><text fill="#000000" font-family="sans-serif" font-size="14" lengthAdjust="spacing" textLength="49" x="557.5" y="571.9951">Broker</text></g><!--link Publisher to pub.broker--><g id="link_Publisher_pub.broker"><path d="M82.0959,361.26 C73.0983,383.754 59.5057,417.736 52.1561,436.11 " fill="none" id="Publisher-to-pub.broker" style="stroke:#181818;stroke-width:1.0;"/><polygon fill="#181818" points="50.2578,440.856,57.3144,433.9855,52.1149,436.2137,49.8867,431.0141,50.2578,440.856" style="stroke:#181818;stroke-width:1.0;"/></g><!--link pub.broker to PubConnector--><g id="link_pub.broker_PubConnector"><path d="M56.0625,450 C67.7588,450 79.4551,450 91.151,450 " fill="none" id="pub.broker-PubConnector" style="stroke:#181818;stroke-width:1.0;"/></g><!--link publisher.proto to pub--><g id="link_publisher.proto_pub"><path d="M427.928,193.696 C410.075,208.841 368.8735,243.7928 331.632,275.3851 C313.0113,291.1813 295.3805,306.1377 282.1533,317.3584 C278.8465,320.1636 275.8149,322.7353 273.1119,325.0283 C271.7604,326.1748 270.4911,327.2516 269.3105,328.2531 C268.7202,328.7538 268.1521,329.2357 267.6071,329.6981 C267.4708,329.8136 267.336,329.928 267.2026,330.0412 " fill="none" id="publisher.proto-pub" style="stroke:#181818;stroke-width:1.0;"/></g><!--link pub to pubsub.proto--><g id="link_pub_pubsub.proto"><path d="M267.0669,348.97 C267.7208,349.7782 268.4077,350.6272 269.1251,351.5139 C274.8642,358.6072 282.5534,368.1108 290.8859,378.4094 C307.5508,399.0065 326.7885,422.7835 338.144,436.818 " fill="none" id="pub-to-pubsub.proto" style="stroke:#181818;stroke-width:1.0;"/><polygon fill="#181818" points="341.505,440.973,338.9548,431.46,338.3605,437.0856,332.7349,436.4912,341.505,440.973" style="stroke:#181818;stroke-width:1.0;"/></g><!--link Topic Mgmt to broker.monitor--><g id="link_Topic Mgmt_broker.monitor"><path d="M521.846,361.26 C508.554,383.754 488.474,417.736 477.617,436.11 " fill="none" id="Topic Mgmt-to-broker.monitor" style="stroke:#181818;stroke-width:1.0;"/><polygon fill="#181818" points="474.813,440.856,482.8347,435.1418,477.3562,436.5511,475.9469,431.0726,474.813,440.856" style="stroke:#181818;stroke-width:1.0;"/></g><!--link broker.monitor to BrokerMonitor--><g id="link_broker.monitor_BrokerMonitor"><path d="M479.141,450 C490.797,450 502.454,450 514.111,450 " fill="none" id="broker.monitor-BrokerMonitor" style="stroke:#181818;stroke-width:1.0;"/></g><!--link ps_service to pubsub.proto--><g id="link_ps_service_pubsub.proto"><path d="M428.9733,348.9203 C428.8874,349.0265 428.8009,349.1334 428.7138,349.241 C428.5397,349.4563 428.3632,349.6743 428.1846,349.8951 C427.47,350.7783 426.7199,351.7054 425.9371,352.6729 C419.6751,360.4125 411.3263,370.7313 402.4189,381.7405 C384.604,403.759 364.5545,428.5395 354.495,440.973 " fill="none" id="ps_service-pubsub.proto" style="stroke:#181818;stroke-width:1.0;"/></g><!--reverse link publisher.proto to ps_service--><g id="link_publisher.proto_ps_service"><path d="M437,199.399 C437,208.4855 437,221.423 437,235.7683 C437,242.9409 437,250.4655 437,258.0366 C437,261.8222 437,265.6194 437,269.3901 C437,269.8614 437,270.3323 437,270.8027 C437,271.038 437,271.273 437,271.508 " fill="none" id="publisher.proto-backto-ps_service" style="stroke:#181818;stroke-width:1.0;"/><polygon fill="#181818" points="437,194.118,433,203.118,437,199.118,441,203.118,437,194.118" style="stroke:#181818;stroke-width:1.0;"/></g><!--link Subscriber to sub.broker--><g id="link_Subscriber_sub.broker"><path d="M636.656,96.26 C624.182,118.754 605.337,152.736 595.148,171.11 " fill="none" id="Subscriber-to-sub.broker" style="stroke:#181818;stroke-width:1.0;"/><polygon fill="#181818" points="592.516,175.856,600.3796,169.9261,594.9414,171.4837,593.3839,166.0455,592.516,175.856" style="stroke:#181818;stroke-width:1.0;"/></g><!--link sub.broker to SubConnector--><g id="link_sub.broker_SubConnector"><path d="M597.062,185 C608.759,185 620.455,185 632.151,185 " fill="none" id="sub.broker-SubConnector" style="stroke:#181818;stroke-width:1.0;"/></g><!--link sub to publisher.proto--><g id="link_sub_publisher.proto"><path d="M546.9483,81.5056 C546.8514,81.596 546.7538,81.687 546.6554,81.7787 C545.0812,83.2462 543.3159,84.8918 541.3873,86.6897 C533.6726,93.8813 523.3443,103.5095 512.178,113.9188 C489.8455,134.7373 464.1615,158.68 449.333,172.503 " fill="none" id="sub-to-publisher.proto" style="stroke:#181818;stroke-width:1.0;"/><polygon fill="#181818" points="445.611,175.973,454.9213,172.7609,449.2679,172.5632,449.4656,166.9098,445.611,175.973" style="stroke:#181818;stroke-width:1.0;"/></g><!--link PubConnector to Broker--><g id="link_PubConnector_Broker"><path d="M195.217,473.29 C216.396,486.8747 245.233,503.4125 273,513 C362.869,544.0308 474.104,555.0359 537.168,558.9144 " fill="none" id="PubConnector-to-Broker" style="stroke:#181818;stroke-width:1.0;"/><polygon fill="#181818" points="542.37,559.2248,533.6249,554.6945,537.3789,558.9262,533.1472,562.6802,542.37,559.2248" style="stroke:#181818;stroke-width:1.0;"/></g><!--link BrokerMonitor to Broker--><g id="link_BrokerMonitor_Broker"><path d="M587,478.353 C587,495.2381 587,516.8215 587,533.6972 " fill="none" id="BrokerMonitor-Broker" style="stroke:#181818;stroke-width:1.0;"/><polygon fill="#181818" points="587,473.26,583,482.26,587,478.26,591,482.26,587,473.26" style="stroke:#181818;stroke-width:1.0;"/><polygon fill="#181818" points="587,538.773,591,529.773,587,533.773,583,529.773,587,538.773" style="stroke:#181818;stroke-width:1.0;"/></g><!--link Broker to SubConnector--><g id="link_Broker_SubConnector"><path d="M631.878,547.1065 C648.454,539.666 665.693,528.704 676,513 C738.213,418.208 720.626,273.201 709.708,213.322 " fill="none" id="Broker-to-SubConnector" style="stroke:#181818;stroke-width:1.0;"/><polygon fill="#181818" points="708.74,208.136,706.4585,217.717,709.657,213.0512,714.3228,216.2497,708.74,208.136" style="stroke:#181818;stroke-width:1.0;"/></g><!--SRC=[TP313e8m44Jl_OgDz_85XeEUJOXuCyH8RR1HkaqNz63yTmjBBCN8ZPbXU3iAMuTMsmvMHL_V3LsrXsPVR5Tm9d1z3Iy1uJb-tGgap0SdgptUj1_j-0fop6xHMgqwz9Lu2p7qoDx98SSjcVFO8HjSHw62HQ4Ig39aIkqVHkaP6PreqYR00pgZODUq7HCoJjQYDG5ZpAJIGBePbHqBZ1gBfKovvbOu9l-vPWuUg4bvKy_df3Xdj9cMqZqfsRDSxabnjXGWdHxa1PysvAOxAx4u6DR_4k7RVF7Z3m00]--></g></svg>