<?xml version="1.0" encoding="UTF-8" standalone="no"?><svg xmlns="http://www.w3.org/2000/svg" xmlns:xlink="http://www.w3.org/1999/xlink" contentStyleType="text/css" height="450px" preserveAspectRatio="none" style="width:567px;height:450px;background:#FFFFFF;" version="1.1" viewBox="0 0 567 450" width="567px" zoomAndPan="magnify"><defs/><g><!--MD5=[1607b2340120579a31ca661742e80b11]
entity chariott--><g id="elem_chariott"><rect fill="#F1F1F1" height="46.2969" rx="2.5" ry="2.5" style="stroke:#181818;stroke-width:0.5;" width="94" x="233" y="7"/><rect fill="#F1F1F1" height="10" style="stroke:#181818;stroke-width:0.5;" width="15" x="307" y="12"/><rect fill="#F1F1F1" height="2" style="stroke:#181818;stroke-width:0.5;" width="4" x="305" y="14"/><rect fill="#F1F1F1" height="2" style="stroke:#181818;stroke-width:0.5;" width="4" x="305" y="18"/><text fill="#000000" font-family="sans-serif" font-size="14" lengthAdjust="spacing" textLength="54" x="248" y="39.9951">Chariott</text></g><!--MD5=[7b58420a7d07f5a211aed65654a90813]
entity service_discovery.proto--><g id="elem_service_discovery.proto"><ellipse cx="371" cy="30" fill="#F1F1F1" rx="8" ry="8" style="stroke:#181818;stroke-width:0.5;"/><text fill="#000000" font-family="sans-serif" font-size="14" lengthAdjust="spacing" textLength="162" x="290" y="59.9951">service_discovery.proto</text></g><!--MD5=[5849514daac886e9049383706c6b7fa3]
entity ps_service--><g id="elem_ps_service"><rect fill="#F1F1F1" height="46.2969" rx="2.5" ry="2.5" style="stroke:#181818;stroke-width:0.5;" width="152" x="7" y="113"/><rect fill="#F1F1F1" height="10" style="stroke:#181818;stroke-width:0.5;" width="15" x="139" y="118"/><rect fill="#F1F1F1" height="2" style="stroke:#181818;stroke-width:0.5;" width="4" x="137" y="120"/><rect fill="#F1F1F1" height="2" style="stroke:#181818;stroke-width:0.5;" width="4" x="137" y="124"/><text fill="#000000" font-family="sans-serif" font-size="14" lengthAdjust="spacing" textLength="112" x="22" y="145.9951">Pub Sub Service</text></g><!--MD5=[a7e7d7289310a33798fa93e9559be466]
entity pubsub.proto--><g id="elem_pubsub.proto"><ellipse cx="203" cy="136" fill="#F1F1F1" rx="8" ry="8" style="stroke:#181818;stroke-width:0.5;"/><text fill="#000000" font-family="sans-serif" font-size="14" lengthAdjust="spacing" textLength="94" x="156" y="165.9951">pubsub.proto</text></g><!--MD5=[6c9ce80671f37feef6923a01ca2bde36]
entity publisher.proto--><g id="elem_publisher.proto"><ellipse cx="186" cy="248" fill="#F1F1F1" rx="8" ry="8" style="stroke:#181818;stroke-width:0.5;"/><text fill="#000000" font-family="sans-serif" font-size="14" lengthAdjust="spacing" textLength="105" x="133.5" y="277.9951">publisher.proto</text></g><!--MD5=[0cd0a9fc04650e5908b120a5d7719c2e]
entity pub--><g id="elem_pub"><rect fill="#F1F1F1" height="46.2969" rx="2.5" ry="2.5" style="stroke:#181818;stroke-width:0.5;" width="104" x="247" y="113"/><rect fill="#F1F1F1" height="10" style="stroke:#181818;stroke-width:0.5;" width="15" x="331" y="118"/><rect fill="#F1F1F1" height="2" style="stroke:#181818;stroke-width:0.5;" width="4" x="329" y="120"/><rect fill="#F1F1F1" height="2" style="stroke:#181818;stroke-width:0.5;" width="4" x="329" y="124"/><text fill="#000000" font-family="sans-serif" font-size="14" lengthAdjust="spacing" textLength="64" x="262" y="145.9951">Publisher</text></g><!--MD5=[33c327514065c149da1266a1e46bd2be]
entity sample_publisher.proto--><g id="elem_sample_publisher.proto"><ellipse cx="441" cy="248" fill="#F1F1F1" rx="8" ry="8" style="stroke:#181818;stroke-width:0.5;"/><text fill="#000000" font-family="sans-serif" font-size="14" lengthAdjust="spacing" textLength="162" x="360" y="277.9951">sample_publisher.proto</text></g><!--MD5=[6f0f5a402aa03956aaa6c99d85cc3800]
entity sub--><g id="elem_sub"><rect fill="#F1F1F1" height="46.2969" rx="2.5" ry="2.5" style="stroke:#181818;stroke-width:0.5;" width="114" x="386" y="113"/><rect fill="#F1F1F1" height="10" style="stroke:#181818;stroke-width:0.5;" width="15" x="480" y="118"/><rect fill="#F1F1F1" height="2" style="stroke:#181818;stroke-width:0.5;" width="4" x="478" y="120"/><rect fill="#F1F1F1" height="2" style="stroke:#181818;stroke-width:0.5;" width="4" x="478" y="124"/><text fill="#000000" font-family="sans-serif" font-size="14" lengthAdjust="spacing" textLength="74" x="401" y="145.9951">Subscriber</text></g><!--MD5=[241b36de05534b6660b3ddf6e8766aa9]
entity Broker--><g id="elem_Broker"><rect fill="#F1F1F1" height="46.2969" rx="2.5" ry="2.5" style="stroke:#181818;stroke-width:0.5;" width="86" x="256" y="398"/><rect fill="#F1F1F1" height="10" style="stroke:#181818;stroke-width:0.5;" width="15" x="322" y="403"/><rect fill="#F1F1F1" height="2" style="stroke:#181818;stroke-width:0.5;" width="4" x="320" y="405"/><rect fill="#F1F1F1" height="2" style="stroke:#181818;stroke-width:0.5;" width="4" x="320" y="409"/><text fill="#000000" font-family="sans-serif" font-size="14" lengthAdjust="spacing" textLength="46" x="271" y="430.9951">Broker</text></g><!--MD5=[744f470b8d8f3eb7ce0590d0b49933a3]
link chariott to service_discovery.proto--><g id="link_chariott_service_discovery.proto"><path d="M327.28,30 C338.78,30 350.28,30 361.78,30 " fill="none" id="chariott-service_discovery.proto" style="stroke:#181818;stroke-width:1.0;"/></g><!--MD5=[7239b8cf220456376a6c2bca6dc09b96]
link ps_service to pubsub.proto--><g id="link_ps_service_pubsub.proto"><path d="M159.41,136 C170.87,136 182.34,136 193.8,136 " fill="none" id="ps_service-pubsub.proto" style="stroke:#181818;stroke-width:1.0;"/></g><!--MD5=[ba80a3e12eec17d287479db00c0e68fd]
link ps_service to publisher.proto--><g id="link_ps_service_publisher.proto"><path d="M103.84,159.26 C125.27,182.14 157.82,216.9 174.8,235.04 " fill="none" id="ps_service-to-publisher.proto" style="stroke:#181818;stroke-width:1.0;"/><polygon fill="#181818" points="178.37,238.86,175.1339,229.558,174.9508,235.2119,169.2969,235.0287,178.37,238.86" style="stroke:#181818;stroke-width:1.0;"/></g><!--MD5=[d15f25b3d1b0af3882a186b068a86bc3]
reverse link service_discovery.proto to pub--><g id="link_service_discovery.proto_pub"><path d="M362.27,43.62 C350.38,60.78 328.93,91.76 314.34,112.85 " fill="none" id="service_discovery.proto-backto-pub" style="stroke:#181818;stroke-width:1.0;"/><polygon fill="#181818" points="365.35,39.16,356.9346,44.2768,362.501,43.2689,363.5089,48.8352,365.35,39.16" style="stroke:#181818;stroke-width:1.0;"/></g><!--MD5=[8df736b1102a074ce196a7c15427a764]
reverse link pubsub.proto to pub--><g id="link_pubsub.proto_pub"><path d="M217.5,136 C227.3,136 237.09,136 246.89,136 " fill="none" id="pubsub.proto-backto-pub" style="stroke:#181818;stroke-width:1.0;"/><polygon fill="#181818" points="212.38,136,221.3914,139.9743,217.38,135.9857,221.3685,131.9743,212.38,136" style="stroke:#181818;stroke-width:1.0;"/></g><!--MD5=[b5e0dab7b18d42065821053fe9ab0814]
link pub to publisher.proto--><g id="link_pub_publisher.proto"><path d="M276.13,159.26 C250.85,183.87 211.45,222.23 194.37,238.86 " fill="none" id="pub-publisher.proto" style="stroke:#181818;stroke-width:1.0;"/></g><!--MD5=[c1ddffda98ba335deeed79f2a73b5136]
link pub to sample_publisher.proto--><g id="link_pub_sample_publisher.proto"><path d="M327.74,159.26 C360.15,184.37 411.05,223.8 431.77,239.85 " fill="none" id="pub-sample_publisher.proto" style="stroke:#181818;stroke-width:1.0;"/></g><!--MD5=[a714cc9bce4f7f9cebd4fa9c33790538]
reverse link service_discovery.proto to sub--><g id="link_service_discovery.proto_sub"><path d="M379.73,43.62 C391.62,60.78 413.07,91.76 427.66,112.85 " fill="none" id="service_discovery.proto-backto-sub" style="stroke:#181818;stroke-width:1.0;"/><polygon fill="#181818" points="376.65,39.16,378.4911,48.8352,379.499,43.2689,385.0654,44.2768,376.65,39.16" style="stroke:#181818;stroke-width:1.0;"/></g><!--MD5=[429a281aa57ccb5c16255d472700b8a6]
link sub to sample_publisher.proto--><g id="link_sub_sample_publisher.proto"><path d="M442.6,159.26 C442.19,181.56 441.58,215.16 441.24,233.64 " fill="none" id="sub-to-sample_publisher.proto" style="stroke:#181818;stroke-width:1.0;"/><polygon fill="#181818" points="441.15,238.86,445.3292,229.9418,441.25,233.861,437.3308,229.7818,441.15,238.86" style="stroke:#181818;stroke-width:1.0;"/></g><!--MD5=[aa3a5f4a16dbc38b3eb2068c19ffb96a]
link ps_service to Broker--><g id="link_ps_service_Broker"><path d="M82.13,164.49 C82.43,194.33 86.66,242.37 108,277 C142.25,332.57 206.71,373.91 251.21,397.49 " fill="none" id="ps_service-Broker" style="stroke:#181818;stroke-width:1.0;"/><polygon fill="#181818" points="255.72,399.85,249.6156,392.121,251.2945,397.523,245.8925,399.2019,255.72,399.85" style="stroke:#181818;stroke-width:1.0;"/><polygon fill="#181818" points="82.12,159.13,78.1457,168.1414,82.1343,164.13,86.1457,168.1185,82.12,159.13" style="stroke:#181818;stroke-width:1.0;"/></g><!--MD5=[7612caddec232e5bc2d50336c8888809]
link pub to Broker--><g id="link_pub_Broker"><path d="M299,159.21 C299,210.46 299,336.86 299,392.72 " fill="none" id="pub-to-Broker" style="stroke:#181818;stroke-width:1.0;"/><polygon fill="#181818" points="299,397.9,303,388.9,299,392.9,295,388.9,299,397.9" style="stroke:#181818;stroke-width:1.0;"/></g><!--MD5=[5e40e3f136bfeb7943cd5e9329fdc82c]
link sub to Broker--><g id="link_sub_Broker"><path d="M487.39,159.03 C509.99,172.86 535.32,193.02 548,219 C559.3,242.17 560.91,254.69 548,277 C504.88,351.49 406.67,390.54 347.29,408.08 " fill="none" id="sub-to-Broker" style="stroke:#181818;stroke-width:1.0;"/><polygon fill="#181818" points="342.38,409.51,352.14,410.83,347.18,408.11,349.9,403.15,342.38,409.51" style="stroke:#181818;stroke-width:1.0;"/></g><!--MD5=[7bfb2d7356c8375e0afcec210f7c2169]
@startuml pubsub chariott component diagram
component "Chariott" as chariott

chariott -right- service_discovery.proto

component "Pub Sub Service" as ps_service

ps_service -right- pubsub.proto
ps_service -down-> publisher.proto

component "Publisher" as pub

pub -up-> service_discovery.proto
pub -left-> pubsub.proto
pub -down- publisher.proto
pub -down- sample_publisher.proto

component "Subscriber" as sub

sub -up-> service_discovery.proto
sub -down-> sample_publisher.proto

[ps_service] <- -down- -> [Broker]
[pub] -down-> [Broker]
[sub] -down-> [Broker]

@enduml

PlantUML version 1.2022.7(Mon Aug 22 10:01:30 PDT 2022)
(GPL source distribution)
Java Runtime: OpenJDK Runtime Environment
JVM: OpenJDK 64-Bit Server VM
Default Encoding: UTF-8
Language: en
Country: null
--></g></svg>