<?xml version="1.0" encoding="us-ascii" standalone="no"?><svg xmlns="http://www.w3.org/2000/svg" xmlns:xlink="http://www.w3.org/1999/xlink" contentStyleType="text/css" height="261px" preserveAspectRatio="none" style="width:514px;height:261px;background:#FFFFFF;" version="1.1" viewBox="0 0 514 261" width="514px" zoomAndPan="magnify"><defs/><g><!--entity pub--><g id="elem_pub"><rect fill="#F1F1F1" height="46.2969" rx="2.5" ry="2.5" style="stroke:#181818;stroke-width:0.5;" width="106" x="7" y="103"/><rect fill="#F1F1F1" height="10" style="stroke:#181818;stroke-width:0.5;" width="15" x="93" y="108"/><rect fill="#F1F1F1" height="2" style="stroke:#181818;stroke-width:0.5;" width="4" x="91" y="110"/><rect fill="#F1F1F1" height="2" style="stroke:#181818;stroke-width:0.5;" width="4" x="91" y="114"/><text fill="#000000" font-family="sans-serif" font-size="14" lengthAdjust="spacing" textLength="66" x="22" y="135.9951">Publisher</text></g><!--entity publisher.proto--><g id="elem_publisher.proto"><ellipse cx="279" cy="14" fill="#F1F1F1" rx="8" ry="8" style="stroke:#181818;stroke-width:0.5;"/><text fill="#000000" font-family="sans-serif" font-size="14" lengthAdjust="spacing" textLength="113" x="222.5" y="43.9951">publisher.proto</text></g><!--entity pubsub.proto--><g id="elem_pubsub.proto"><ellipse cx="157" cy="126" fill="#F1F1F1" rx="8" ry="8" style="stroke:#181818;stroke-width:0.5;"/><text fill="#000000" font-family="sans-serif" font-size="14" lengthAdjust="spacing" textLength="99" x="107.5" y="155.9951">pubsub.proto</text></g><!--entity ps_service--><g id="elem_ps_service"><rect fill="#F1F1F1" height="46.2969" rx="2.5" ry="2.5" style="stroke:#181818;stroke-width:0.5;" width="155" x="201.5" y="103"/><rect fill="#F1F1F1" height="10" style="stroke:#181818;stroke-width:0.5;" width="15" x="336.5" y="108"/><rect fill="#F1F1F1" height="2" style="stroke:#181818;stroke-width:0.5;" width="4" x="334.5" y="110"/><rect fill="#F1F1F1" height="2" style="stroke:#181818;stroke-width:0.5;" width="4" x="334.5" y="114"/><text fill="#000000" font-family="sans-serif" font-size="14" lengthAdjust="spacing" textLength="115" x="216.5" y="135.9951">Pub Sub Service</text></g><!--entity sub--><g id="elem_sub"><rect fill="#F1F1F1" height="46.2969" rx="2.5" ry="2.5" style="stroke:#181818;stroke-width:0.5;" width="117" x="391.5" y="103"/><rect fill="#F1F1F1" height="10" style="stroke:#181818;stroke-width:0.5;" width="15" x="488.5" y="108"/><rect fill="#F1F1F1" height="2" style="stroke:#181818;stroke-width:0.5;" width="4" x="486.5" y="110"/><rect fill="#F1F1F1" height="2" style="stroke:#181818;stroke-width:0.5;" width="4" x="486.5" y="114"/><text fill="#000000" font-family="sans-serif" font-size="14" lengthAdjust="spacing" textLength="77" x="406.5" y="135.9951">Subscriber</text></g><!--entity Broker--><g id="elem_Broker"><rect fill="#F1F1F1" height="46.2969" rx="2.5" ry="2.5" style="stroke:#181818;stroke-width:0.5;" width="89" x="234.5" y="209"/><rect fill="#F1F1F1" height="10" style="stroke:#181818;stroke-width:0.5;" width="15" x="303.5" y="214"/><rect fill="#F1F1F1" height="2" style="stroke:#181818;stroke-width:0.5;" width="4" x="301.5" y="216"/><rect fill="#F1F1F1" height="2" style="stroke:#181818;stroke-width:0.5;" width="4" x="301.5" y="220"/><text fill="#000000" font-family="sans-serif" font-size="14" lengthAdjust="spacing" textLength="49" x="249.5" y="241.9951">Broker</text></g><!--link publisher.proto to pub--><g id="link_publisher.proto_pub"><path d="M269.869,19.587 C242.021,33.574 156.856,76.351 103.964,102.918 " fill="none" id="publisher.proto-pub" style="stroke:#181818;stroke-width:1.0;"/></g><!--link pub to pubsub.proto--><g id="link_pub_pubsub.proto"><path d="M113.047,126 C122.891,126 132.736,126 142.581,126 " fill="none" id="pub-to-pubsub.proto" style="stroke:#181818;stroke-width:1.0;"/><polygon fill="#181818" points="147.729,126,138.729,122,142.729,126,138.729,130,147.729,126" style="stroke:#181818;stroke-width:1.0;"/></g><!--link pubsub.proto to ps_service--><g id="link_pubsub.proto_ps_service"><path d="M166.055,126 C177.82,126 189.585,126 201.35,126 " fill="none" id="pubsub.proto-ps_service" style="stroke:#181818;stroke-width:1.0;"/></g><!--reverse link publisher.proto to ps_service--><g id="link_publisher.proto_ps_service"><path d="M279,28.5 C279,47 279,80.465 279,102.713 " fill="none" id="publisher.proto-backto-ps_service" style="stroke:#181818;stroke-width:1.0;"/><polygon fill="#181818" points="279,23.268,275,32.268,279,28.268,283,32.268,279,23.268" style="stroke:#181818;stroke-width:1.0;"/></g><!--reverse link publisher.proto to sub--><g id="link_publisher.proto_sub"><path d="M292.412,23.628 C318.668,40.517 377.586,78.418 415.473,102.79 " fill="none" id="publisher.proto-backto-sub" style="stroke:#181818;stroke-width:1.0;"/><polygon fill="#181818" points="288.194,20.914,293.5987,29.1474,292.399,23.6192,297.9271,22.4194,288.194,20.914" style="stroke:#181818;stroke-width:1.0;"/></g><!--link pub to Broker--><g id="link_pub_Broker"><path d="M106.4443,149.056 C142.613,166.2318 192.706,190.02 229.605,207.5428 " fill="none" id="pub-to-Broker" style="stroke:#181818;stroke-width:1.0;"/><polygon fill="#181818" points="234.492,209.864,228.0791,202.3891,229.9757,207.7185,224.6463,209.6151,234.492,209.864" style="stroke:#181818;stroke-width:1.0;"/></g><!--link ps_service to Broker--><g id="link_ps_service_Broker"><path d="M279,154.192 C279,169.528 279,188.6238 279,203.9383 " fill="none" id="ps_service-Broker" style="stroke:#181818;stroke-width:1.0;"/><polygon fill="#181818" points="279,149.056,275,158.056,279,154.056,283,158.056,279,149.056" style="stroke:#181818;stroke-width:1.0;"/><polygon fill="#181818" points="279,208.9761,283,199.9761,279,203.9761,275,199.9761,279,208.9761" style="stroke:#181818;stroke-width:1.0;"/></g><!--reverse link sub to Broker--><g id="link_sub_Broker"><path d="M409.229,151.797 C380.633,169.1884 342.745,192.2311 315.212,208.9761 " fill="none" id="sub-backto-Broker" style="stroke:#181818;stroke-width:1.0;"/><polygon fill="#181818" points="413.735,149.056,403.9671,150.3163,409.4634,151.6547,408.125,157.1509,413.735,149.056" style="stroke:#181818;stroke-width:1.0;"/></g><!--SRC=[ROv12i8m44NtESNGVJo1TE4919SbY8aZ1cicP1gzlXCIGajTPCYyp_p_7RqZ1GmB3ETiPyzFJ0FS66AsIia0dQCkMzKECT52LHWBvcmRKsxZ1PVoC7sym-h8Lwwh6FS_w1aVYzvQhMM97tVvwop9OPUyRSMv5ETM_C_b9CI0ljCtY3oT4hqm6S4zqy1nBtEvQhpZ7m00]--></g></svg>