<?xml version="1.0" encoding="UTF-8" standalone="no"?><svg xmlns="http://www.w3.org/2000/svg" xmlns:xlink="http://www.w3.org/1999/xlink" contentStyleType="text/css" height="261px" preserveAspectRatio="none" style="width:506px;height:261px;background:#FFFFFF;" version="1.1" viewBox="0 0 506 261" width="506px" zoomAndPan="magnify"><defs/><g><!--MD5=[0cd0a9fc04650e5908b120a5d7719c2e]
entity pub--><g id="elem_pub"><rect fill="#F1F1F1" height="46.2969" rx="2.5" ry="2.5" style="stroke:#181818;stroke-width:0.5;" width="104" x="156" y="103"/><rect fill="#F1F1F1" height="10" style="stroke:#181818;stroke-width:0.5;" width="15" x="240" y="108"/><rect fill="#F1F1F1" height="2" style="stroke:#181818;stroke-width:0.5;" width="4" x="238" y="110"/><rect fill="#F1F1F1" height="2" style="stroke:#181818;stroke-width:0.5;" width="4" x="238" y="114"/><text fill="#000000" font-family="sans-serif" font-size="14" lengthAdjust="spacing" textLength="64" x="171" y="135.9951">Publisher</text></g><!--MD5=[6c9ce80671f37feef6923a01ca2bde36]
entity publisher.proto--><g id="elem_publisher.proto"><ellipse cx="372" cy="14" fill="#F1F1F1" rx="8" ry="8" style="stroke:#181818;stroke-width:0.5;"/><text fill="#000000" font-family="sans-serif" font-size="14" lengthAdjust="spacing" textLength="105" x="319.5" y="43.9951">publisher.proto</text></g><!--MD5=[33c327514065c149da1266a1e46bd2be]
entity sample_publisher.proto--><g id="elem_sample_publisher.proto"><ellipse cx="136" cy="14" fill="#F1F1F1" rx="8" ry="8" style="stroke:#181818;stroke-width:0.5;"/><text fill="#000000" font-family="sans-serif" font-size="14" lengthAdjust="spacing" textLength="162" x="55" y="43.9951">sample_publisher.proto</text></g><!--MD5=[a7e7d7289310a33798fa93e9559be466]
entity pubsub.proto--><g id="elem_pubsub.proto"><ellipse cx="304" cy="126" fill="#F1F1F1" rx="8" ry="8" style="stroke:#181818;stroke-width:0.5;"/><text fill="#000000" font-family="sans-serif" font-size="14" lengthAdjust="spacing" textLength="94" x="257" y="155.9951">pubsub.proto</text></g><!--MD5=[5849514daac886e9049383706c6b7fa3]
entity ps_service--><g id="elem_ps_service"><rect fill="#F1F1F1" height="46.2969" rx="2.5" ry="2.5" style="stroke:#181818;stroke-width:0.5;" width="152" x="348" y="103"/><rect fill="#F1F1F1" height="10" style="stroke:#181818;stroke-width:0.5;" width="15" x="480" y="108"/><rect fill="#F1F1F1" height="2" style="stroke:#181818;stroke-width:0.5;" width="4" x="478" y="110"/><rect fill="#F1F1F1" height="2" style="stroke:#181818;stroke-width:0.5;" width="4" x="478" y="114"/><text fill="#000000" font-family="sans-serif" font-size="14" lengthAdjust="spacing" textLength="112" x="363" y="135.9951">Pub Sub Service</text></g><!--MD5=[6f0f5a402aa03956aaa6c99d85cc3800]
entity sub--><g id="elem_sub"><rect fill="#F1F1F1" height="46.2969" rx="2.5" ry="2.5" style="stroke:#181818;stroke-width:0.5;" width="114" x="7" y="103"/><rect fill="#F1F1F1" height="10" style="stroke:#181818;stroke-width:0.5;" width="15" x="101" y="108"/><rect fill="#F1F1F1" height="2" style="stroke:#181818;stroke-width:0.5;" width="4" x="99" y="110"/><rect fill="#F1F1F1" height="2" style="stroke:#181818;stroke-width:0.5;" width="4" x="99" y="114"/><text fill="#000000" font-family="sans-serif" font-size="14" lengthAdjust="spacing" textLength="74" x="22" y="135.9951">Subscriber</text></g><!--MD5=[241b36de05534b6660b3ddf6e8766aa9]
entity Broker--><g id="elem_Broker"><rect fill="#F1F1F1" height="46.2969" rx="2.5" ry="2.5" style="stroke:#181818;stroke-width:0.5;" width="86" x="165" y="209"/><rect fill="#F1F1F1" height="10" style="stroke:#181818;stroke-width:0.5;" width="15" x="231" y="214"/><rect fill="#F1F1F1" height="2" style="stroke:#181818;stroke-width:0.5;" width="4" x="229" y="216"/><rect fill="#F1F1F1" height="2" style="stroke:#181818;stroke-width:0.5;" width="4" x="229" y="220"/><text fill="#000000" font-family="sans-serif" font-size="14" lengthAdjust="spacing" textLength="46" x="180" y="241.9951">Broker</text></g><!--MD5=[7b489e67fcf16fa607fdd75ae5e4ab14]
link publisher.proto to pub--><g id="link_publisher.proto_pub"><path d="M362.71,21.23 C339.67,36.68 279.01,77.37 240.85,102.97 " fill="none" id="publisher.proto-pub" style="stroke:#181818;stroke-width:1.0;"/></g><!--MD5=[e1fcf423b4326c89944076590c4fbd3f]
link sample_publisher.proto to pub--><g id="link_sample_publisher.proto_pub"><path d="M141.41,23.27 C152.33,39.96 177.34,78.16 193.41,102.71 " fill="none" id="sample_publisher.proto-pub" style="stroke:#181818;stroke-width:1.0;"/></g><!--MD5=[0cbe2f24e2f26f9b8a294116831fd221]
link pub to pubsub.proto--><g id="link_pub_pubsub.proto"><path d="M260.12,126 C269.95,126 279.78,126 289.61,126 " fill="none" id="pub-to-pubsub.proto" style="stroke:#181818;stroke-width:1.0;"/><polygon fill="#181818" points="294.75,126,285.75,122,289.75,126,285.75,130,294.75,126" style="stroke:#181818;stroke-width:1.0;"/></g><!--MD5=[808a5b3cabefc2e8d7fdb4e50b22b39c]
link pubsub.proto to ps_service--><g id="link_pubsub.proto_ps_service"><path d="M313.38,126 C324.9,126 336.42,126 347.95,126 " fill="none" id="pubsub.proto-ps_service" style="stroke:#181818;stroke-width:1.0;"/></g><!--MD5=[1bba6e28d5edb2d5d124538c8e9c2111]
reverse link publisher.proto to ps_service--><g id="link_publisher.proto_ps_service"><path d="M378.16,28.02 C386.85,46.42 402.86,80.27 413.46,102.71 " fill="none" id="publisher.proto-backto-ps_service" style="stroke:#181818;stroke-width:1.0;"/><polygon fill="#181818" points="375.91,23.27,376.1438,33.1161,378.0486,27.7896,383.3751,29.6943,375.91,23.27" style="stroke:#181818;stroke-width:1.0;"/></g><!--MD5=[e8ea8bcc982568e0aec6c068a58d5b29]
reverse link sample_publisher.proto to sub--><g id="link_sample_publisher.proto_sub"><path d="M127.78,27.56 C115.81,45.84 93.4,80.08 78.59,102.71 " fill="none" id="sample_publisher.proto-backto-sub" style="stroke:#181818;stroke-width:1.0;"/><polygon fill="#181818" points="130.59,23.27,122.3031,28.5924,127.843,27.4478,128.9876,32.9876,130.59,23.27" style="stroke:#181818;stroke-width:1.0;"/></g><!--MD5=[7612caddec232e5bc2d50336c8888809]
link pub to Broker--><g id="link_pub_Broker"><path d="M208,149.06 C208,165.05 208,186.78 208,203.84 " fill="none" id="pub-to-Broker" style="stroke:#181818;stroke-width:1.0;"/><polygon fill="#181818" points="208,208.98,212,199.98,208,203.98,204,199.98,208,208.98" style="stroke:#181818;stroke-width:1.0;"/></g><!--MD5=[aa3a5f4a16dbc38b3eb2068c19ffb96a]
link ps_service to Broker--><g id="link_ps_service_Broker"><path d="M373.27,151.42 C337.76,168.52 290.63,191.22 255.78,207.99 " fill="none" id="ps_service-Broker" style="stroke:#181818;stroke-width:1.0;"/><polygon fill="#181818" points="251.17,210.22,261.014,209.9112,255.6731,208.0471,257.5373,202.7062,251.17,210.22" style="stroke:#181818;stroke-width:1.0;"/><polygon fill="#181818" points="378.19,149.06,368.346,149.3688,373.6869,151.2329,371.8227,156.5738,378.19,149.06" style="stroke:#181818;stroke-width:1.0;"/></g><!--MD5=[88f006abe41af6d2da12a06db5b67bea]
reverse link sub to Broker--><g id="link_sub_Broker"><path d="M98.63,152.01 C122.68,169.38 154.42,192.3 177.51,208.98 " fill="none" id="sub-backto-Broker" style="stroke:#181818;stroke-width:1.0;"/><polygon fill="#181818" points="94.54,149.06,99.4963,157.5709,98.5941,151.9864,104.1786,151.0842,94.54,149.06" style="stroke:#181818;stroke-width:1.0;"/></g><!--MD5=[4ab50f764819923f1d300ff43ff64543]
@startuml pubsub component diagram
component "Publisher" as pub

pub -up- publisher.proto
pub -up- sample_publisher.proto
pub -> pubsub.proto

component "Pub Sub Service" as ps_service

ps_service -left- pubsub.proto
ps_service -up-> publisher.proto

component "Subscriber" as sub

sub -up-> sample_publisher.proto

[pub] -down-> [Broker]
[ps_service] <-down-> [Broker]
[sub] <-down- [Broker]

@enduml

PlantUML version 1.2022.7(Mon Aug 22 10:01:30 PDT 2022)
(GPL source distribution)
Java Runtime: OpenJDK Runtime Environment
JVM: OpenJDK 64-Bit Server VM
Default Encoding: UTF-8
Language: en
Country: null
--></g></svg>