<?xml version="1.0" encoding="us-ascii" standalone="no"?><svg xmlns="http://www.w3.org/2000/svg" xmlns:xlink="http://www.w3.org/1999/xlink" contentStyleType="text/css" height="450px" preserveAspectRatio="none" style="width:515px;height:450px;background:#FFFFFF;" version="1.1" viewBox="0 0 515 450" width="515px" zoomAndPan="magnify"><defs/><g><!--entity chariott--><g id="elem_chariott"><rect fill="#F1F1F1" height="46.2969" rx="2.5" ry="2.5" style="stroke:#181818;stroke-width:0.5;" width="100" x="232.5" y="7"/><rect fill="#F1F1F1" height="10" style="stroke:#181818;stroke-width:0.5;" width="15" x="312.5" y="12"/><rect fill="#F1F1F1" height="2" style="stroke:#181818;stroke-width:0.5;" width="4" x="310.5" y="14"/><rect fill="#F1F1F1" height="2" style="stroke:#181818;stroke-width:0.5;" width="4" x="310.5" y="18"/><text fill="#000000" font-family="sans-serif" font-size="14" lengthAdjust="spacing" textLength="60" x="247.5" y="39.9951">Chariott</text></g><!--entity chariott.provider.proto--><g id="elem_chariott.provider.proto"><ellipse cx="188.5" cy="30" fill="#F1F1F1" rx="8" ry="8" style="stroke:#181818;stroke-width:0.5;"/><text fill="#000000" font-family="sans-serif" font-size="14" lengthAdjust="spacing" textLength="170" x="103.5" y="59.9951">chariott.provider.proto</text></g><!--entity chariott.runtime.proto--><g id="elem_chariott.runtime.proto"><ellipse cx="376.5" cy="30" fill="#F1F1F1" rx="8" ry="8" style="stroke:#181818;stroke-width:0.5;"/><text fill="#000000" font-family="sans-serif" font-size="14" lengthAdjust="spacing" textLength="166" x="293.5" y="59.9951">chariott.runtime.proto</text></g><!--entity ps_service--><g id="elem_ps_service"><rect fill="#F1F1F1" height="46.2969" rx="2.5" ry="2.5" style="stroke:#181818;stroke-width:0.5;" width="155" x="7" y="113"/><rect fill="#F1F1F1" height="10" style="stroke:#181818;stroke-width:0.5;" width="15" x="142" y="118"/><rect fill="#F1F1F1" height="2" style="stroke:#181818;stroke-width:0.5;" width="4" x="140" y="120"/><rect fill="#F1F1F1" height="2" style="stroke:#181818;stroke-width:0.5;" width="4" x="140" y="124"/><text fill="#000000" font-family="sans-serif" font-size="14" lengthAdjust="spacing" textLength="115" x="22" y="145.9951">Pub Sub Service</text></g><!--entity pubsub.proto--><g id="elem_pubsub.proto"><ellipse cx="206.5" cy="136" fill="#F1F1F1" rx="8" ry="8" style="stroke:#181818;stroke-width:0.5;"/><text fill="#000000" font-family="sans-serif" font-size="14" lengthAdjust="spacing" textLength="99" x="157" y="165.9951">pubsub.proto</text></g><!--entity publisher.proto--><g id="elem_publisher.proto"><ellipse cx="246.5" cy="248" fill="#F1F1F1" rx="8" ry="8" style="stroke:#181818;stroke-width:0.5;"/><text fill="#000000" font-family="sans-serif" font-size="14" lengthAdjust="spacing" textLength="113" x="190" y="277.9951">publisher.proto</text></g><!--entity pub--><g id="elem_pub"><rect fill="#F1F1F1" height="46.2969" rx="2.5" ry="2.5" style="stroke:#181818;stroke-width:0.5;" width="106" x="250.5" y="113"/><rect fill="#F1F1F1" height="10" style="stroke:#181818;stroke-width:0.5;" width="15" x="336.5" y="118"/><rect fill="#F1F1F1" height="2" style="stroke:#181818;stroke-width:0.5;" width="4" x="334.5" y="120"/><rect fill="#F1F1F1" height="2" style="stroke:#181818;stroke-width:0.5;" width="4" x="334.5" y="124"/><text fill="#000000" font-family="sans-serif" font-size="14" lengthAdjust="spacing" textLength="66" x="265.5" y="145.9951">Publisher</text></g><!--entity sub--><g id="elem_sub"><rect fill="#F1F1F1" height="46.2969" rx="2.5" ry="2.5" style="stroke:#181818;stroke-width:0.5;" width="117" x="392" y="113"/><rect fill="#F1F1F1" height="10" style="stroke:#181818;stroke-width:0.5;" width="15" x="489" y="118"/><rect fill="#F1F1F1" height="2" style="stroke:#181818;stroke-width:0.5;" width="4" x="487" y="120"/><rect fill="#F1F1F1" height="2" style="stroke:#181818;stroke-width:0.5;" width="4" x="487" y="124"/><text fill="#000000" font-family="sans-serif" font-size="14" lengthAdjust="spacing" textLength="77" x="407" y="145.9951">Subscriber</text></g><!--entity Broker--><g id="elem_Broker"><rect fill="#F1F1F1" height="46.2969" rx="2.5" ry="2.5" style="stroke:#181818;stroke-width:0.5;" width="89" x="319" y="398"/><rect fill="#F1F1F1" height="10" style="stroke:#181818;stroke-width:0.5;" width="15" x="388" y="403"/><rect fill="#F1F1F1" height="2" style="stroke:#181818;stroke-width:0.5;" width="4" x="386" y="405"/><rect fill="#F1F1F1" height="2" style="stroke:#181818;stroke-width:0.5;" width="4" x="386" y="409"/><text fill="#000000" font-family="sans-serif" font-size="14" lengthAdjust="spacing" textLength="49" x="334" y="430.9951">Broker</text></g><!--reverse link chariott.provider.proto to chariott--><g id="link_chariott.provider.proto_chariott"><path d="M202.844,30 C212.719,30 222.594,30 232.469,30 " fill="none" id="chariott.provider.proto-backto-chariott" style="stroke:#181818;stroke-width:1.0;"/><polygon fill="#181818" points="197.68,30,206.68,34,202.68,30,206.68,26,197.68,30" style="stroke:#181818;stroke-width:1.0;"/></g><!--link chariott to chariott.runtime.proto--><g id="link_chariott_chariott.runtime.proto"><path d="M332.805,30 C344.297,30 355.79,30 367.283,30 " fill="none" id="chariott-chariott.runtime.proto" style="stroke:#181818;stroke-width:1.0;"/></g><!--link chariott.provider.proto to ps_service--><g id="link_chariott.provider.proto_ps_service"><path d="M180.339,39.161 C164.633,54.867 129.718,89.782 106.6512,112.849 " fill="none" id="chariott.provider.proto-ps_service" style="stroke:#181818;stroke-width:1.0;"/></g><!--link ps_service to pubsub.proto--><g id="link_ps_service_pubsub.proto"><path d="M162.18,136 C173.952,136 185.725,136 197.497,136 " fill="none" id="ps_service-pubsub.proto" style="stroke:#181818;stroke-width:1.0;"/></g><!--link ps_service to publisher.proto--><g id="link_ps_service_publisher.proto"><path d="M117.283,159.26 C152.794,183.373 207.746,220.685 232.985,237.823 " fill="none" id="ps_service-to-publisher.proto" style="stroke:#181818;stroke-width:1.0;"/><polygon fill="#181818" points="237.341,240.781,232.1414,232.4165,233.2042,237.9727,227.6481,239.0354,237.341,240.781" style="stroke:#181818;stroke-width:1.0;"/></g><!--link chariott.provider.proto to pub--><g id="link_chariott.provider.proto_pub"><path d="M197.524,39.161 C214.891,54.867 253.499,89.782 279.006,112.849 " fill="none" id="chariott.provider.proto-pub" style="stroke:#181818;stroke-width:1.0;"/></g><!--reverse link chariott.runtime.proto to pub--><g id="link_chariott.runtime.proto_pub"><path d="M367.645,43.616 C355.596,60.78 333.848,91.764 319.048,112.849 " fill="none" id="chariott.runtime.proto-backto-pub" style="stroke:#181818;stroke-width:1.0;"/><polygon fill="#181818" points="370.772,39.161,362.3274,44.2294,367.8994,43.2535,368.8753,48.8255,370.772,39.161" style="stroke:#181818;stroke-width:1.0;"/></g><!--reverse link pubsub.proto to pub--><g id="link_pubsub.proto_pub"><path d="M220.742,136 C230.586,136 240.431,136 250.276,136 " fill="none" id="pubsub.proto-backto-pub" style="stroke:#181818;stroke-width:1.0;"/><polygon fill="#181818" points="215.594,136,224.594,140,220.594,136,224.594,132,215.594,136" style="stroke:#181818;stroke-width:1.0;"/></g><!--link pub to publisher.proto--><g id="link_pub_publisher.proto"><path d="M291.965,159.26 C279.213,183.869 259.337,222.227 250.72,238.856 " fill="none" id="pub-publisher.proto" style="stroke:#181818;stroke-width:1.0;"/></g><!--reverse link chariott.runtime.proto to sub--><g id="link_chariott.runtime.proto_sub"><path d="M385.477,43.616 C397.69,60.78 419.736,91.764 434.739,112.849 " fill="none" id="chariott.runtime.proto-backto-sub" style="stroke:#181818;stroke-width:1.0;"/><polygon fill="#181818" points="382.307,39.161,384.2665,48.813,385.2062,43.2347,390.7844,44.1743,382.307,39.161" style="stroke:#181818;stroke-width:1.0;"/></g><!--link sub to publisher.proto--><g id="link_sub_publisher.proto"><path d="M409.218,159.26 C360.319,185.627 282.15,227.777 255.637,242.073 " fill="none" id="sub-publisher.proto" style="stroke:#181818;stroke-width:1.0;"/></g><!--link ps_service to Broker--><g id="link_ps_service_Broker"><path d="M95.6492,163.882 C108.956,193.794 133.371,242.455 164.5,277 C209.655,327.111 275.213,370.0041 318.578,395.3973 " fill="none" id="ps_service-Broker" style="stroke:#181818;stroke-width:1.0;"/><polygon fill="#181818" points="93.6095,159.248,93.5741,169.0968,95.6237,163.8243,100.8962,165.874,93.6095,159.248" style="stroke:#181818;stroke-width:1.0;"/><polygon fill="#181818" points="322.966,397.9512,317.2005,389.9663,318.6449,395.4356,313.1756,396.88,322.966,397.9512" style="stroke:#181818;stroke-width:1.0;"/></g><!--link pub to Broker--><g id="link_pub_Broker"><path d="M310.67,159.102 C315.821,175.509 322.678,198.496 327.5,219 C341.986,280.595 353.772,354.0075 359.581,392.8173 " fill="none" id="pub-to-Broker" style="stroke:#181818;stroke-width:1.0;"/><polygon fill="#181818" points="360.327,397.8312,362.9583,388.3403,359.5908,392.8857,355.0455,389.5182,360.327,397.8312" style="stroke:#181818;stroke-width:1.0;"/></g><!--link sub to Broker--><g id="link_sub_Broker"><path d="M443.673,159.207 C427.886,210.559 388.901,337.375 371.784,393.0537 " fill="none" id="sub-to-Broker" style="stroke:#181818;stroke-width:1.0;"/><polygon fill="#181818" points="370.295,397.8966,376.7634,390.4696,371.7645,393.1174,369.1167,388.1185,370.295,397.8966" style="stroke:#181818;stroke-width:1.0;"/></g><!--SRC=[XP113eCW44Ntd8AufoTeNBGNQDAbCOqWhQGgP0RizGjAnJPg5oJ3_9_vRqRepkXUzfPcvwO2fQtDQ8LKn0yXdugoLjujosVfO40FgfOG2giNHb2Fnh9a1DTRrSde8o9bNXodr_0a34h8CThW3QSl8Qccp1cscRtqnNJZE3g-ejVwrVirlDugREOHFrYJDW4vxaayvJv2DEHRUu-6UCDlk22CLBjG_aueGF58XO4A_uNYpkmYNQMaHpRP_AZY1FefeVG6nylvOAcDQ-qt]--></g></svg>