<?xml version="1.0" encoding="us-ascii" standalone="no"?><svg xmlns="http://www.w3.org/2000/svg" xmlns:xlink="http://www.w3.org/1999/xlink" contentStyleType="text/css" height="433px" preserveAspectRatio="none" style="width:836px;height:433px;background:#FFFFFF;" version="1.1" viewBox="0 0 836 433" width="836px" zoomAndPan="magnify"><defs/><g><text fill="#000000" font-family="sans-serif" font-size="14" font-weight="bold" lengthAdjust="spacing" textLength="233" x="300.75" y="27.9951">Subscribe Sequence Diagram</text><rect fill="#FFFFFF" height="129.5313" style="stroke:#181818;stroke-width:1.0;" width="10" x="40" y="104.7266"/><rect fill="#FFFFFF" height="67.2656" style="stroke:#181818;stroke-width:1.0;" width="10" x="40" y="321.6563"/><rect fill="#FFFFFF" height="71.2656" style="stroke:#181818;stroke-width:1.0;" width="10" x="384" y="133.8594"/><rect fill="#FFFFFF" height="29.1328" style="stroke:#181818;stroke-width:1.0;" width="10" x="384" y="292.5234"/><rect fill="#FFFFFF" height="125.5313" style="stroke:#181818;stroke-width:1.0;" width="10" x="635" y="263.3906"/><rect fill="#FFFFFF" height="305.3281" style="stroke:#181818;stroke-width:1.0;" width="10" x="780" y="83.5938"/><line style="stroke:#181818;stroke-width:0.5;stroke-dasharray:5.0,5.0;" x1="45" x2="45" y1="73.5938" y2="397.9219"/><line style="stroke:#181818;stroke-width:0.5;stroke-dasharray:5.0,5.0;" x1="389" x2="389" y1="73.5938" y2="397.9219"/><line style="stroke:#181818;stroke-width:0.5;stroke-dasharray:5.0,5.0;" x1="639.5" x2="639.5" y1="73.5938" y2="397.9219"/><line style="stroke:#181818;stroke-width:0.5;stroke-dasharray:5.0,5.0;" x1="784.5" x2="784.5" y1="73.5938" y2="397.9219"/><rect fill="#E2E2F0" height="30.2969" rx="2.5" ry="2.5" style="stroke:#181818;stroke-width:0.5;" width="80" x="5" y="42.2969"/><text fill="#000000" font-family="sans-serif" font-size="14" lengthAdjust="spacing" textLength="66" x="12" y="62.292">Publisher</text><rect fill="#E2E2F0" height="30.2969" rx="2.5" ry="2.5" style="stroke:#181818;stroke-width:0.5;" width="80" x="5" y="396.9219"/><text fill="#000000" font-family="sans-serif" font-size="14" lengthAdjust="spacing" textLength="66" x="12" y="416.917">Publisher</text><rect fill="#E2E2F0" height="30.2969" rx="2.5" ry="2.5" style="stroke:#181818;stroke-width:0.5;" width="92" x="343" y="42.2969"/><text fill="#000000" font-family="sans-serif" font-size="14" lengthAdjust="spacing" textLength="78" x="350" y="62.292">PS_Service</text><rect fill="#E2E2F0" height="30.2969" rx="2.5" ry="2.5" style="stroke:#181818;stroke-width:0.5;" width="92" x="343" y="396.9219"/><text fill="#000000" font-family="sans-serif" font-size="14" lengthAdjust="spacing" textLength="78" x="350" y="416.917">PS_Service</text><rect fill="#E2E2F0" height="30.2969" rx="2.5" ry="2.5" style="stroke:#181818;stroke-width:0.5;" width="63" x="608.5" y="42.2969"/><text fill="#000000" font-family="sans-serif" font-size="14" lengthAdjust="spacing" textLength="49" x="615.5" y="62.292">Broker</text><rect fill="#E2E2F0" height="30.2969" rx="2.5" ry="2.5" style="stroke:#181818;stroke-width:0.5;" width="63" x="608.5" y="396.9219"/><text fill="#000000" font-family="sans-serif" font-size="14" lengthAdjust="spacing" textLength="49" x="615.5" y="416.917">Broker</text><rect fill="#E2E2F0" height="30.2969" rx="2.5" ry="2.5" style="stroke:#181818;stroke-width:0.5;" width="91" x="739.5" y="42.2969"/><text fill="#000000" font-family="sans-serif" font-size="14" lengthAdjust="spacing" textLength="77" x="746.5" y="62.292">Subscriber</text><rect fill="#E2E2F0" height="30.2969" rx="2.5" ry="2.5" style="stroke:#181818;stroke-width:0.5;" width="91" x="739.5" y="396.9219"/><text fill="#000000" font-family="sans-serif" font-size="14" lengthAdjust="spacing" textLength="77" x="746.5" y="416.917">Subscriber</text><rect fill="#FFFFFF" height="129.5313" style="stroke:#181818;stroke-width:1.0;" width="10" x="40" y="104.7266"/><rect fill="#FFFFFF" height="67.2656" style="stroke:#181818;stroke-width:1.0;" width="10" x="40" y="321.6563"/><rect fill="#FFFFFF" height="71.2656" style="stroke:#181818;stroke-width:1.0;" width="10" x="384" y="133.8594"/><rect fill="#FFFFFF" height="29.1328" style="stroke:#181818;stroke-width:1.0;" width="10" x="384" y="292.5234"/><rect fill="#FFFFFF" height="125.5313" style="stroke:#181818;stroke-width:1.0;" width="10" x="635" y="263.3906"/><rect fill="#FFFFFF" height="305.3281" style="stroke:#181818;stroke-width:1.0;" width="10" x="780" y="83.5938"/><polygon fill="#181818" points="61,100.7266,51,104.7266,61,108.7266,57,104.7266" style="stroke:#181818;stroke-width:1.0;"/><line style="stroke:#181818;stroke-width:1.0;" x1="55" x2="779" y1="104.7266" y2="104.7266"/><text fill="#000000" font-family="sans-serif" font-size="13" font-weight="bold" lengthAdjust="spacing" textLength="9" x="67" y="99.6606">1</text><text fill="#000000" font-family="sans-serif" font-size="13" lengthAdjust="spacing" textLength="181" x="80" y="99.6606">GetSubscriptionInfo(subject)</text><polygon fill="#181818" points="372,129.8594,382,133.8594,372,137.8594,376,133.8594" style="stroke:#181818;stroke-width:1.0;"/><line style="stroke:#181818;stroke-width:1.0;" x1="50" x2="378" y1="133.8594" y2="133.8594"/><text fill="#000000" font-family="sans-serif" font-size="13" font-weight="bold" lengthAdjust="spacing" textLength="9" x="57" y="128.7935">2</text><text fill="#000000" font-family="sans-serif" font-size="13" lengthAdjust="spacing" textLength="241" x="70" y="128.7935">CreateTopic(management metadata)</text><line style="stroke:#181818;stroke-width:1.0;" x1="394" x2="436" y1="162.9922" y2="162.9922"/><line style="stroke:#181818;stroke-width:1.0;" x1="436" x2="436" y1="162.9922" y2="175.9922"/><line style="stroke:#181818;stroke-width:1.0;" x1="395" x2="436" y1="175.9922" y2="175.9922"/><polygon fill="#181818" points="405,171.9922,395,175.9922,405,179.9922,401,175.9922" style="stroke:#181818;stroke-width:1.0;"/><text fill="#000000" font-family="sans-serif" font-size="13" font-weight="bold" lengthAdjust="spacing" textLength="8" x="401" y="157.9263">3</text><text fill="#000000" font-family="sans-serif" font-size="13" lengthAdjust="spacing" textLength="98" x="413" y="157.9263">Generate Topic</text><polygon fill="#181818" points="61,201.125,51,205.125,61,209.125,57,205.125" style="stroke:#181818;stroke-width:1.0;"/><line style="stroke:#181818;stroke-width:1.0;stroke-dasharray:2.0,2.0;" x1="55" x2="388" y1="205.125" y2="205.125"/><text fill="#000000" font-family="sans-serif" font-size="13" font-weight="bold" lengthAdjust="spacing" textLength="9" x="67" y="200.0591">4</text><text fill="#000000" font-family="sans-serif" font-size="13" lengthAdjust="spacing" textLength="297" x="80" y="200.0591">CreateTopicResponse(topic, broker metadata)</text><polygon fill="#181818" points="768,230.2578,778,234.2578,768,238.2578,772,234.2578" style="stroke:#181818;stroke-width:1.0;"/><line style="stroke:#181818;stroke-width:1.0;stroke-dasharray:2.0,2.0;" x1="45" x2="774" y1="234.2578" y2="234.2578"/><text fill="#000000" font-family="sans-serif" font-size="13" font-weight="bold" lengthAdjust="spacing" textLength="9" x="52" y="229.1919">5</text><text fill="#000000" font-family="sans-serif" font-size="13" lengthAdjust="spacing" textLength="379" x="65" y="229.1919">SubscriptionInfoResponse(protocol, subscription metadata)</text><polygon fill="#181818" points="656,259.3906,646,263.3906,656,267.3906,652,263.3906" style="stroke:#181818;stroke-width:1.0;"/><line style="stroke:#181818;stroke-width:1.0;" x1="650" x2="779" y1="263.3906" y2="263.3906"/><text fill="#000000" font-family="sans-serif" font-size="13" font-weight="bold" lengthAdjust="spacing" textLength="9" x="662" y="258.3247">6</text><text fill="#000000" font-family="sans-serif" font-size="13" lengthAdjust="spacing" textLength="103" x="675" y="258.3247">Subscribe(topic)</text><polygon fill="#181818" points="405,288.5234,395,292.5234,405,296.5234,401,292.5234" style="stroke:#181818;stroke-width:1.0;"/><line style="stroke:#181818;stroke-width:1.0;stroke-dasharray:2.0,2.0;" x1="399" x2="634" y1="292.5234" y2="292.5234"/><text fill="#000000" font-family="sans-serif" font-size="13" font-weight="bold" lengthAdjust="spacing" textLength="9" x="411" y="287.4575">7</text><text fill="#000000" font-family="sans-serif" font-size="13" lengthAdjust="spacing" textLength="209" x="424" y="287.4575">PubSubAction::SUBSCRIBE(topic)</text><polygon fill="#181818" points="61,317.6563,51,321.6563,61,325.6563,57,321.6563" style="stroke:#181818;stroke-width:1.0;"/><line style="stroke:#181818;stroke-width:1.0;" x1="55" x2="388" y1="321.6563" y2="321.6563"/><text fill="#000000" font-family="sans-serif" font-size="13" font-weight="bold" lengthAdjust="spacing" textLength="9" x="67" y="316.5903">8</text><text fill="#000000" font-family="sans-serif" font-size="13" lengthAdjust="spacing" textLength="276" x="80" y="316.5903">ManagementCB(topic, TopicAction::START)</text><polygon fill="#181818" points="623,346.7891,633,350.7891,623,354.7891,627,350.7891" style="stroke:#181818;stroke-width:1.0;"/><line style="stroke:#181818;stroke-width:1.0;" x1="50" x2="629" y1="350.7891" y2="350.7891"/><text fill="#000000" font-family="sans-serif" font-size="13" font-weight="bold" lengthAdjust="spacing" textLength="9" x="57" y="345.7231">9</text><text fill="#000000" font-family="sans-serif" font-size="13" lengthAdjust="spacing" textLength="29" x="70" y="345.7231">data</text><polygon fill="#181818" points="768,375.9219,778,379.9219,768,383.9219,772,379.9219" style="stroke:#181818;stroke-width:1.0;"/><line style="stroke:#181818;stroke-width:1.0;" x1="645" x2="774" y1="379.9219" y2="379.9219"/><text fill="#000000" font-family="sans-serif" font-size="13" font-weight="bold" lengthAdjust="spacing" textLength="19" x="652" y="374.856">10</text><text fill="#000000" font-family="sans-serif" font-size="13" lengthAdjust="spacing" textLength="29" x="675" y="374.856">data</text><!--SRC=[XPBDJiGW58NtVGgMDPbvWIvCfjLCPc5Yshesm5n7nXOGBlFyqbg1eeqxVYxddFjTKE00f7FCSYEONy6d0yc1F0XwCNGig4CbtSZ059eQ55neAf4yEpO8-vwVTgyTc9lWi3gkZVhmbPIZk55Cx4nHn3NPtqTPKf4Zu7AfKIXvac-gj8vTWUDTr8f1ujj9A2JnIeq1NzehBNWvKaalC8AFDGBICqMQgiK64eLSxmWIp5G-IwuginuIvnQiLj92YTDkHzWC9GbnXZzZnAwyTaAh8ZcTuA2DGiNLi2CsATcm2lpMa_YUMNHXI_04rZBMfNAVK_BA_ks1JzvLrRtKNTEUwiTVCjlC4v1FOMnD_KDmnXhq-qFRRq7yxxU4PYSyeQ4CztJt1G00]--></g></svg>