<?xml version="1.0" encoding="us-ascii" standalone="no"?><svg xmlns="http://www.w3.org/2000/svg" xmlns:xlink="http://www.w3.org/1999/xlink" contentStyleType="text/css" height="476px" preserveAspectRatio="none" style="width:759px;height:476px;background:#FFFFFF;" version="1.1" viewBox="0 0 759 476" width="759px" zoomAndPan="magnify"><defs/><g><text fill="#000000" font-family="sans-serif" font-size="14" font-weight="bold" lengthAdjust="spacing" textLength="244" x="250.5" y="22.9951">Topic Lifecycle State Diagram</text><rect fill="#F1F1F1" height="46.2969" rx="12.5" ry="12.5" style="stroke:#181818;stroke-width:0.5;" width="140" x="417" y="299.2969"/><path d="M463.6667,299.2969 L463.6667,304.2969 L456.6667,311.2969 L417,311.2969 " fill="none" style="stroke:#181818;stroke-width:0.5;"/><text fill="#000000" font-family="sans-serif" font-size="14" lengthAdjust="spacing" textLength="88" x="438" y="332.292">NotifyOfSub</text><g id="NoSubs"><rect fill="#F1F1F1" height="50" rx="12.5" ry="12.5" style="stroke:#181818;stroke-width:0.5;" width="93" x="184.5" y="297.2969"/><line style="stroke:#181818;stroke-width:0.5;" x1="184.5" x2="277.5" y1="323.5938" y2="323.5938"/><text fill="#000000" font-family="sans-serif" font-size="14" lengthAdjust="spacing" textLength="73" x="194.5" y="315.292">Subs == 0</text></g><g id="SomeSubs"><rect fill="#F1F1F1" height="50" rx="12.5" ry="12.5" style="stroke:#181818;stroke-width:0.5;" width="82" x="651" y="297.2969"/><line style="stroke:#181818;stroke-width:0.5;" x1="651" x2="733" y1="323.5938" y2="323.5938"/><text fill="#000000" font-family="sans-serif" font-size="14" lengthAdjust="spacing" textLength="62" x="661" y="315.292">Subs &gt; 0</text></g><g id="elem_CheckSubs"><polygon fill="#F1F1F1" points="531,435.2969,543,447.2969,531,459.2969,519,447.2969,531,435.2969" style="stroke:#181818;stroke-width:0.5;"/></g><rect fill="#F1F1F1" height="46.2969" rx="12.5" ry="12.5" style="stroke:#181818;stroke-width:0.5;" width="181" x="198.5" y="424.2969"/><path d="M258.8333,424.2969 L258.8333,429.2969 L251.8333,436.2969 L198.5,436.2969 " fill="none" style="stroke:#181818;stroke-width:0.5;"/><text fill="#000000" font-family="sans-serif" font-size="14" lengthAdjust="spacing" textLength="129" x="219.5" y="457.292">NotifyOfZeroSubs</text><rect fill="#F1F1F1" height="46.2969" rx="12.5" ry="12.5" style="stroke:#181818;stroke-width:0.5;" width="259" x="331.5" y="124.2969"/><path d="M417.8333,124.2969 L417.8333,129.2969 L410.8333,136.2969 L331.5,136.2969 " fill="none" style="stroke:#181818;stroke-width:0.5;"/><text fill="#000000" font-family="sans-serif" font-size="14" lengthAdjust="spacing" textLength="207" x="352.5" y="157.292">NotifySubscribersOfDeletion</text><ellipse cx="16" cy="322.2969" fill="#181818" rx="10" ry="10" style="stroke:none;stroke-width:1.0;"/><ellipse cx="461" cy="53.2969" fill="none" rx="10" ry="10" style="stroke:#181818;stroke-width:1.0;"/><ellipse cx="461.5" cy="53.7969" fill="#181818" rx="6" ry="6" style="stroke:none;stroke-width:1.0;"/><g id="elem_GMN27"><path d="M578.5,434.7969 L578.5,443.2969 L543.012,447.2969 L578.5,451.2969 L578.5,459.9297 A0,0 0 0 0 578.5,459.9297 L729.5,459.9297 A0,0 0 0 0 729.5,459.9297 L729.5,444.7969 L719.5,434.7969 L578.5,434.7969 A0,0 0 0 0 578.5,434.7969 " fill="#FEFFDD" style="stroke:#181818;stroke-width:0.5;"/><path d="M719.5,434.7969 L719.5,444.7969 L729.5,444.7969 L719.5,434.7969 " fill="#FEFFDD" style="stroke:#181818;stroke-width:0.5;"/><text fill="#000000" font-family="sans-serif" font-size="13" lengthAdjust="spacing" textLength="130" x="584.5" y="451.8638">Is Subs to topic = 0?</text></g><!--link *start* to NoSubs--><g id="link_*start*_NoSubs"><path d="M26.0815,322.2969 C52.9698,322.2969 127.838,322.2969 179.226,322.2969 " fill="none" id="*start*-to-NoSubs" style="stroke:#181818;stroke-width:1.0;"/><polygon fill="#181818" points="184.434,322.2969,175.434,318.2969,179.434,322.2969,175.434,326.2969,184.434,322.2969" style="stroke:#181818;stroke-width:1.0;"/><text fill="#000000" font-family="sans-serif" font-size="13" lengthAdjust="spacing" textLength="77" x="66.75" y="265.3638">CreateTopic</text><path d="M48.25,274.4297 L48.25,314.4297 L162.25,314.4297 L162.25,284.4297 L152.25,274.4297 L48.25,274.4297 " fill="#FEFFDD" style="stroke:#181818;stroke-width:0.5;"/><path d="M152.25,274.4297 L152.25,284.4297 L162.25,284.4297 L152.25,274.4297 " fill="#FEFFDD" style="stroke:#181818;stroke-width:0.5;"/><text fill="#000000" font-family="sans-serif" font-size="13" lengthAdjust="spacing" textLength="87" x="54.25" y="291.4966">Topic request</text><text fill="#000000" font-family="sans-serif" font-size="13" lengthAdjust="spacing" textLength="93" x="54.25" y="306.6294">from publisher</text></g><!--link NoSubs to NotifyOfSub--><g id="link_NoSubs_NotifyOfSub"><path d="M277.657,322.2969 C314.936,322.2969 367.933,322.2969 411.274,322.2969 " fill="none" id="NoSubs-to-NotifyOfSub" style="stroke:#181818;stroke-width:1.0;"/><polygon fill="#181818" points="416.51,322.2969,407.51,318.2969,411.51,322.2969,407.51,326.2969,416.51,322.2969" style="stroke:#181818;stroke-width:1.0;"/><text fill="#000000" font-family="sans-serif" font-size="13" lengthAdjust="spacing" textLength="103" x="295.75" y="315.3638">Subscribe(topic)</text></g><!--link NotifyOfSub to SomeSubs--><g id="link_NotifyOfSub_SomeSubs"><path d="M557.263,322.2969 C586.492,322.2969 619.616,322.2969 645.707,322.2969 " fill="none" id="NotifyOfSub-to-SomeSubs" style="stroke:#181818;stroke-width:1.0;"/><polygon fill="#181818" points="650.828,322.2969,641.828,318.2969,645.828,322.2969,641.828,326.2969,650.828,322.2969" style="stroke:#181818;stroke-width:1.0;"/><text fill="#000000" font-family="sans-serif" font-size="13" lengthAdjust="spacing" textLength="57" x="575.5" y="315.3638">Subs + 1</text></g><!--link SomeSubs to CheckSubs--><g id="link_SomeSubs_CheckSubs"><path d="M650.851,331.1529 C607.212,340.4189 542.585,357.1399 528,377.2969 C516.231,393.5623 521.141,418.068 525.946,433.0767 " fill="none" id="SomeSubs-to-CheckSubs" style="stroke:#181818;stroke-width:1.0;"/><polygon fill="#181818" points="527.68,438.1437,528.55,428.3333,526.0609,433.4131,520.9811,430.9239,527.68,438.1437" style="stroke:#181818;stroke-width:1.0;"/><text fill="#000000" font-family="sans-serif" font-size="13" lengthAdjust="spacing" textLength="119" x="529" y="390.3638">Unsubscribe(topic)</text></g><!--reverse link SomeSubs to CheckSubs--><g id="link_SomeSubs_CheckSubs"><path d="M682.019,352.2279 C675.718,366.6619 666.233,383.3341 653,394.2969 C619.881,421.7345 599.267,404.6667 561,424.2969 C552.035,428.8957 542.856,436.0592 537.053,440.9539 " fill="none" id="SomeSubs-backto-CheckSubs" style="stroke:#181818;stroke-width:1.0;"/><polygon fill="#181818" points="684.035,347.4299,676.8618,354.1786,682.0987,352.0397,684.2376,357.2766,684.035,347.4299" style="stroke:#181818;stroke-width:1.0;"/><text fill="#000000" font-family="sans-serif" font-size="13" lengthAdjust="spacing" textLength="78" x="668" y="390.3638">Subs - 1 &gt; 0</text></g><!--reverse link NotifyZeroSubs to CheckSubs--><g id="link_NotifyZeroSubs_CheckSubs"><path d="M385.063,447.2969 C436.367,447.2969 493.924,447.2969 518.64,447.2969 " fill="none" id="NotifyZeroSubs-backto-CheckSubs" style="stroke:#181818;stroke-width:1.0;"/><polygon fill="#181818" points="379.8,447.2969,388.8,451.2969,384.8,447.2969,388.8,443.2969,379.8,447.2969" style="stroke:#181818;stroke-width:1.0;"/><text fill="#000000" font-family="sans-serif" font-size="13" lengthAdjust="spacing" textLength="88" x="405.25" y="440.3638">Subs - 1 == 0</text></g><!--reverse link NoSubs to NotifyZeroSubs--><g id="link_NoSubs_NotifyZeroSubs"><path d="M237.866,352.4289 C241.505,365.5749 246.568,381.0832 253,394.2969 C258.046,404.6631 265.009,415.2737 271.467,424.1842 " fill="none" id="NoSubs-backto-NotifyZeroSubs" style="stroke:#181818;stroke-width:1.0;"/><polygon fill="#181818" points="236.492,347.3299,234.9727,357.0608,237.7936,352.1575,242.6969,354.9784,236.492,347.3299" style="stroke:#181818;stroke-width:1.0;"/></g><!--link NoSubs to NotifyZeroSubs--><g id="link_NoSubs_NotifyZeroSubs"><path d="M242.321,347.3049 C252.067,367.9739 266.122,397.7788 276.259,419.2779 " fill="none" id="NoSubs-to-NotifyZeroSubs" style="stroke:#181818;stroke-width:1.0;"/><polygon fill="#181818" points="278.489,424.0058,278.2687,414.1594,276.3566,419.4833,271.0327,417.5712,278.489,424.0058" style="stroke:#181818;stroke-width:1.0;"/><text fill="#000000" font-family="sans-serif" font-size="13" lengthAdjust="spacing" textLength="112" x="265" y="390.3638">reminder timeout</text></g><!--reverse link NotifySubs to NoSubs--><g id="link_NotifySubs_NoSubs"><path d="M427.235,173.6939 C383.102,206.8899 306.35,264.6209 263.07,297.1749 " fill="none" id="NotifySubs-backto-NoSubs" style="stroke:#181818;stroke-width:1.0;"/><polygon fill="#181818" points="431.402,170.5599,421.8046,172.7714,427.4056,173.5647,426.6123,179.1656,431.402,170.5599" style="stroke:#181818;stroke-width:1.0;"/><text fill="#000000" font-family="sans-serif" font-size="13" lengthAdjust="spacing" textLength="117" x="397" y="213.3638">DeleteTopic(topic)</text><path d="M392,222.4297 L392,262.4297 L519,262.4297 L519,232.4297 L509,222.4297 L392,222.4297 " fill="#FEFFDD" style="stroke:#181818;stroke-width:0.5;"/><path d="M509,222.4297 L509,232.4297 L519,232.4297 L509,222.4297 " fill="#FEFFDD" style="stroke:#181818;stroke-width:0.5;"/><text fill="#000000" font-family="sans-serif" font-size="13" lengthAdjust="spacing" textLength="106" x="398" y="239.4966">Deletion request</text><text fill="#000000" font-family="sans-serif" font-size="13" lengthAdjust="spacing" textLength="93" x="398" y="254.6294">from publisher</text></g><!--reverse link NotifySubs to SomeSubs--><g id="link_NotifySubs_SomeSubs"><path d="M495.679,173.5319 C507.257,182.0009 520.211,191.5229 532,200.2969 C576.841,233.6699 628.347,272.7579 660.535,297.2769 " fill="none" id="NotifySubs-backto-SomeSubs" style="stroke:#181818;stroke-width:1.0;"/><polygon fill="#181818" points="491.48,170.4629,496.3853,179.0032,495.5166,173.4135,501.1063,172.5447,491.48,170.4629" style="stroke:#181818;stroke-width:1.0;"/><text fill="#000000" font-family="sans-serif" font-size="13" lengthAdjust="spacing" textLength="117" x="630" y="213.3638">DeleteTopic(topic)</text><path d="M625,222.4297 L625,262.4297 L752,262.4297 L752,232.4297 L742,222.4297 L625,222.4297 " fill="#FEFFDD" style="stroke:#181818;stroke-width:0.5;"/><path d="M742,222.4297 L742,232.4297 L752,232.4297 L742,222.4297 " fill="#FEFFDD" style="stroke:#181818;stroke-width:0.5;"/><text fill="#000000" font-family="sans-serif" font-size="13" lengthAdjust="spacing" textLength="106" x="631" y="239.4966">Deletion request</text><text fill="#000000" font-family="sans-serif" font-size="13" lengthAdjust="spacing" textLength="93" x="631" y="254.6294">from publisher</text></g><!--reverse link *end* to NotifySubs--><g id="link_*end*_NotifySubs"><path d="M461,68.4919 C461,83.2969 461,106.7109 461,123.9899 " fill="none" id="*end*-backto-NotifySubs" style="stroke:#181818;stroke-width:1.0;"/><polygon fill="#181818" points="461,63.4549,457,72.4549,461,68.4549,465,72.4549,461,63.4549" style="stroke:#181818;stroke-width:1.0;"/></g><!--SRC=[lLCzJyCm4DtzAqvCV2WINQCq3Es2XEXGM40CgNjkJatiOZj8_VSuZfsufKXCUBjxxzwTxzcMR8FmeWx4uOa4yYDtyTfM5c59rKvNBJC-kdfMbiHn9TRTvWeg0qaCHM6sZKQEz8Lb6IiSOc0-X_l0x-CJh0pGMhMOWkHIiVR1CnOryhtF5GMl5V6aJHpa3RLlaKmNKxyCE91w0jUqGMrMOeaDMb8o4RaamDvlFo3JjAjjLeQhGGuBZKxOhvD9vLee2Gt9FGDtXYrh_EpGM9yHMhLmw3ODcHerGxc5lee5lKH_MdKEuxpNjbUyOIayriITXWAuWnaRSvaZJ2lDuLMQSz49phh31RqCPhr_AQz1CKqxhZxXztwoCtXG3uyZNloIYiQMv1OrM6fHTNOa1u7HgXoyYOCDyJe_t8X6_ycGQN7_q2nH7zgvjyO6JMykA75YtcFuBLQ1xm_zh_a6]--></g></svg>