<?xml version="1.0" encoding="us-ascii" standalone="no"?><svg xmlns="http://www.w3.org/2000/svg" xmlns:xlink="http://www.w3.org/1999/xlink" contentStyleType="text/css" height="477px" preserveAspectRatio="none" style="width:899px;height:477px;background:#FFFFFF;" version="1.1" viewBox="0 0 899 477" width="899px" zoomAndPan="magnify"><defs/><g><text fill="#000000" font-family="sans-serif" font-size="14" font-weight="bold" lengthAdjust="spacing" textLength="253" x="322.25" y="27.9951">Unsubscribe Sequence Diagram</text><rect fill="#FFFFFF" height="349.4609" style="stroke:#181818;stroke-width:1.0;" width="10" x="55" y="83.5938"/><rect fill="#FFFFFF" height="29.1328" style="stroke:#181818;stroke-width:1.0;" width="10" x="60" y="292.5234"/><rect fill="#FFFFFF" height="211.7969" style="stroke:#181818;stroke-width:1.0;" width="10" x="409" y="221.2578"/><rect fill="#FFFFFF" height="34.1328" style="stroke:#181818;stroke-width:1.0;" width="10" x="414" y="258.3906"/><rect fill="#FFFFFF" height="34.1328" style="stroke:#181818;stroke-width:1.0;" width="10" x="414" y="382.9219"/><rect fill="#FFFFFF" height="349.4609" style="stroke:#181818;stroke-width:1.0;" width="10" x="678" y="83.5938"/><rect fill="#FFFFFF" height="58.2656" style="stroke:#181818;stroke-width:1.0;" width="10" x="683" y="162.9922"/><rect fill="#FFFFFF" height="137.6641" style="stroke:#181818;stroke-width:1.0;" width="10" x="843" y="83.5938"/><rect fill="none" height="88.3984" style="stroke:#000000;stroke-width:1.5;" width="538" x="10" y="336.6563"/><line style="stroke:#181818;stroke-width:0.5;stroke-dasharray:5.0,5.0;" x1="60" x2="60" y1="73.5938" y2="442.0547"/><line style="stroke:#181818;stroke-width:0.5;stroke-dasharray:5.0,5.0;" x1="414" x2="414" y1="73.5938" y2="442.0547"/><line style="stroke:#181818;stroke-width:0.5;stroke-dasharray:5.0,5.0;" x1="682.5" x2="682.5" y1="73.5938" y2="442.0547"/><line style="stroke:#181818;stroke-width:0.5;stroke-dasharray:5.0,5.0;" x1="847.5" x2="847.5" y1="73.5938" y2="442.0547"/><rect fill="#E2E2F0" height="30.2969" rx="2.5" ry="2.5" style="stroke:#181818;stroke-width:0.5;" width="80" x="20" y="42.2969"/><text fill="#000000" font-family="sans-serif" font-size="14" lengthAdjust="spacing" textLength="66" x="27" y="62.292">Publisher</text><rect fill="#E2E2F0" height="30.2969" rx="2.5" ry="2.5" style="stroke:#181818;stroke-width:0.5;" width="80" x="20" y="441.0547"/><text fill="#000000" font-family="sans-serif" font-size="14" lengthAdjust="spacing" textLength="66" x="27" y="461.0498">Publisher</text><rect fill="#E2E2F0" height="30.2969" rx="2.5" ry="2.5" style="stroke:#181818;stroke-width:0.5;" width="92" x="368" y="42.2969"/><text fill="#000000" font-family="sans-serif" font-size="14" lengthAdjust="spacing" textLength="78" x="375" y="62.292">PS_Service</text><rect fill="#E2E2F0" height="30.2969" rx="2.5" ry="2.5" style="stroke:#181818;stroke-width:0.5;" width="92" x="368" y="441.0547"/><text fill="#000000" font-family="sans-serif" font-size="14" lengthAdjust="spacing" textLength="78" x="375" y="461.0498">PS_Service</text><rect fill="#E2E2F0" height="30.2969" rx="2.5" ry="2.5" style="stroke:#181818;stroke-width:0.5;" width="63" x="651.5" y="42.2969"/><text fill="#000000" font-family="sans-serif" font-size="14" lengthAdjust="spacing" textLength="49" x="658.5" y="62.292">Broker</text><rect fill="#E2E2F0" height="30.2969" rx="2.5" ry="2.5" style="stroke:#181818;stroke-width:0.5;" width="63" x="651.5" y="441.0547"/><text fill="#000000" font-family="sans-serif" font-size="14" lengthAdjust="spacing" textLength="49" x="658.5" y="461.0498">Broker</text><rect fill="#E2E2F0" height="30.2969" rx="2.5" ry="2.5" style="stroke:#181818;stroke-width:0.5;" width="91" x="802.5" y="42.2969"/><text fill="#000000" font-family="sans-serif" font-size="14" lengthAdjust="spacing" textLength="77" x="809.5" y="62.292">Subscriber</text><rect fill="#E2E2F0" height="30.2969" rx="2.5" ry="2.5" style="stroke:#181818;stroke-width:0.5;" width="91" x="802.5" y="441.0547"/><text fill="#000000" font-family="sans-serif" font-size="14" lengthAdjust="spacing" textLength="77" x="809.5" y="461.0498">Subscriber</text><rect fill="#FFFFFF" height="349.4609" style="stroke:#181818;stroke-width:1.0;" width="10" x="55" y="83.5938"/><rect fill="#FFFFFF" height="29.1328" style="stroke:#181818;stroke-width:1.0;" width="10" x="60" y="292.5234"/><rect fill="#FFFFFF" height="211.7969" style="stroke:#181818;stroke-width:1.0;" width="10" x="409" y="221.2578"/><rect fill="#FFFFFF" height="34.1328" style="stroke:#181818;stroke-width:1.0;" width="10" x="414" y="258.3906"/><rect fill="#FFFFFF" height="34.1328" style="stroke:#181818;stroke-width:1.0;" width="10" x="414" y="382.9219"/><rect fill="#FFFFFF" height="349.4609" style="stroke:#181818;stroke-width:1.0;" width="10" x="678" y="83.5938"/><rect fill="#FFFFFF" height="58.2656" style="stroke:#181818;stroke-width:1.0;" width="10" x="683" y="162.9922"/><rect fill="#FFFFFF" height="137.6641" style="stroke:#181818;stroke-width:1.0;" width="10" x="843" y="83.5938"/><polygon fill="#181818" points="666,100.7266,676,104.7266,666,108.7266,670,104.7266" style="stroke:#181818;stroke-width:1.0;"/><line style="stroke:#181818;stroke-width:1.0;" x1="65" x2="672" y1="104.7266" y2="104.7266"/><text fill="#000000" font-family="sans-serif" font-size="13" font-weight="bold" lengthAdjust="spacing" textLength="9" x="72" y="99.6606">1</text><text fill="#000000" font-family="sans-serif" font-size="13" lengthAdjust="spacing" textLength="29" x="85" y="99.6606">data</text><polygon fill="#181818" points="831,129.8594,841,133.8594,831,137.8594,835,133.8594" style="stroke:#181818;stroke-width:1.0;"/><line style="stroke:#181818;stroke-width:1.0;" x1="688" x2="837" y1="133.8594" y2="133.8594"/><text fill="#000000" font-family="sans-serif" font-size="13" font-weight="bold" lengthAdjust="spacing" textLength="9" x="695" y="128.7935">2</text><text fill="#000000" font-family="sans-serif" font-size="13" lengthAdjust="spacing" textLength="29" x="708" y="128.7935">data</text><polygon fill="#181818" points="704,158.9922,694,162.9922,704,166.9922,700,162.9922" style="stroke:#181818;stroke-width:1.0;"/><line style="stroke:#181818;stroke-width:1.0;" x1="698" x2="842" y1="162.9922" y2="162.9922"/><text fill="#000000" font-family="sans-serif" font-size="13" font-weight="bold" lengthAdjust="spacing" textLength="8" x="710" y="157.9263">3</text><text fill="#000000" font-family="sans-serif" font-size="13" lengthAdjust="spacing" textLength="119" x="722" y="157.9263">Unsubscribe(topic)</text><line style="stroke:#181818;stroke-width:2.0;" x1="825" x2="835" y1="187.125" y2="197.125"/><line style="stroke:#181818;stroke-width:2.0;" x1="825" x2="835" y1="197.125" y2="187.125"/><line style="stroke:#181818;stroke-width:1.0;" x1="693" x2="830" y1="192.125" y2="192.125"/><text fill="#000000" font-family="sans-serif" font-size="13" font-weight="bold" lengthAdjust="spacing" textLength="9" x="700" y="187.0591">4</text><text fill="#000000" font-family="sans-serif" font-size="13" lengthAdjust="spacing" textLength="29" x="713" y="187.0591">data</text><polygon fill="#181818" points="430,217.2578,420,221.2578,430,225.2578,426,221.2578" style="stroke:#181818;stroke-width:1.0;"/><line style="stroke:#181818;stroke-width:1.0;stroke-dasharray:2.0,2.0;" x1="424" x2="677" y1="221.2578" y2="221.2578"/><text fill="#000000" font-family="sans-serif" font-size="13" font-weight="bold" lengthAdjust="spacing" textLength="9" x="436" y="216.1919">5</text><text fill="#000000" font-family="sans-serif" font-size="13" lengthAdjust="spacing" textLength="227" x="449" y="216.1919">PubSubAction::UNSUBSCRIBE(topic)</text><line style="stroke:#A80036;stroke-width:2.0;" x1="839" x2="857" y1="212.2578" y2="230.2578"/><line style="stroke:#A80036;stroke-width:2.0;" x1="839" x2="857" y1="230.2578" y2="212.2578"/><line style="stroke:#181818;stroke-width:1.0;" x1="419" x2="466" y1="245.3906" y2="245.3906"/><line style="stroke:#181818;stroke-width:1.0;" x1="466" x2="466" y1="245.3906" y2="258.3906"/><line style="stroke:#181818;stroke-width:1.0;" x1="425" x2="466" y1="258.3906" y2="258.3906"/><polygon fill="#181818" points="435,254.3906,425,258.3906,435,262.3906,431,258.3906" style="stroke:#181818;stroke-width:1.0;"/><text fill="#000000" font-family="sans-serif" font-size="13" font-weight="bold" lengthAdjust="spacing" textLength="9" x="431" y="240.3247">6</text><text fill="#000000" font-family="sans-serif" font-size="13" lengthAdjust="spacing" textLength="108" x="444" y="240.3247">topic subs == 0?</text><polygon fill="#181818" points="81,288.5234,71,292.5234,81,296.5234,77,292.5234" style="stroke:#181818;stroke-width:1.0;"/><line style="stroke:#181818;stroke-width:1.0;" x1="75" x2="408" y1="292.5234" y2="292.5234"/><text fill="#000000" font-family="sans-serif" font-size="13" font-weight="bold" lengthAdjust="spacing" textLength="9" x="87" y="287.4575">7</text><text fill="#000000" font-family="sans-serif" font-size="13" lengthAdjust="spacing" textLength="307" x="100" y="287.4575">ManagementCB(topic, TopicAction::STOP) if yes</text><line style="stroke:#181818;stroke-width:2.0;" x1="660" x2="670" y1="316.6563" y2="326.6563"/><line style="stroke:#181818;stroke-width:2.0;" x1="660" x2="670" y1="326.6563" y2="316.6563"/><line style="stroke:#181818;stroke-width:1.0;" x1="65" x2="665" y1="321.6563" y2="321.6563"/><text fill="#000000" font-family="sans-serif" font-size="13" font-weight="bold" lengthAdjust="spacing" textLength="9" x="72" y="316.5903">8</text><text fill="#000000" font-family="sans-serif" font-size="13" lengthAdjust="spacing" textLength="29" x="85" y="316.5903">data</text><path d="M10,336.6563 L88,336.6563 L88,343.7891 L78,353.7891 L10,353.7891 L10,336.6563 " fill="#EEEEEE" style="stroke:#000000;stroke-width:1.5;"/><rect fill="none" height="88.3984" style="stroke:#000000;stroke-width:1.5;" width="538" x="10" y="336.6563"/><text fill="#000000" font-family="sans-serif" font-size="13" font-weight="bold" lengthAdjust="spacing" textLength="33" x="25" y="349.7231">loop</text><text fill="#000000" font-family="sans-serif" font-size="11" font-weight="bold" lengthAdjust="spacing" textLength="127" x="103" y="348.8667">[while topic exists]</text><line style="stroke:#181818;stroke-width:1.0;" x1="419" x2="466" y1="369.9219" y2="369.9219"/><line style="stroke:#181818;stroke-width:1.0;" x1="466" x2="466" y1="369.9219" y2="382.9219"/><line style="stroke:#181818;stroke-width:1.0;" x1="425" x2="466" y1="382.9219" y2="382.9219"/><polygon fill="#181818" points="435,378.9219,425,382.9219,435,386.9219,431,382.9219" style="stroke:#181818;stroke-width:1.0;"/><text fill="#000000" font-family="sans-serif" font-size="13" font-weight="bold" lengthAdjust="spacing" textLength="9" x="431" y="364.856">9</text><text fill="#000000" font-family="sans-serif" font-size="13" lengthAdjust="spacing" textLength="92" x="444" y="364.856">topic timeout?</text><polygon fill="#181818" points="76,413.0547,66,417.0547,76,421.0547,72,417.0547" style="stroke:#181818;stroke-width:1.0;"/><line style="stroke:#181818;stroke-width:1.0;" x1="70" x2="408" y1="417.0547" y2="417.0547"/><text fill="#000000" font-family="sans-serif" font-size="13" font-weight="bold" lengthAdjust="spacing" textLength="19" x="82" y="411.9888">10</text><text fill="#000000" font-family="sans-serif" font-size="13" lengthAdjust="spacing" textLength="268" x="105" y="411.9888">ManagementCB(topic, TopicAction::STOP)</text><!--SRC=[bLB1JiCm3BttAtna4aYSAus93WuSW8giPvIctcRH9YLnH_VtPDtQHgKIq4jKn-yzl-SmSOcGQTVaJbdA4GH-DgWLmWF9dPLL91iskgboj95KJ0V926cJb-JslbHBowIebfeX5Uy2xO4KZfs9DHyXKlH2Dee65hYvkpH238La6Lt-V7q4z7T19SG59gxOrAGMFwOOMDk0TgBeAKSVdjOFwNllFPFHSPozY2mHwxUdvB4NAN0gKw1ZQuwXrp6vCQD0PYhQKSF93ooNSBlw2tu8CuPdgUKEAzIyJivZNiFcTFGsnEOrNG1juOWkD32tmN7NuRxQoS92aW5G6bF3rvxy4pixmfOSkmZyzwjxfWfDmwkkUsx26PP_Pz2Hp0U0klW6]--></g></svg>